<svg width="40" height="40" viewBox="0 0 40 40" fill="none" xmlns="http://www.w3.org/2000/svg">
<path d="M5.83347 38.8742H6.06502L6.34274 38.7815L14.676 32.3003L27.8702 32.3C28.9753 32.3 30.0352 31.8611 30.8167 31.0796C31.5978 30.2984 32.0371 29.2385 32.0371 28.1335V24.4297H35.8335H35.8331C36.9382 24.4297 37.9981 23.9909 38.7793 23.2094C39.5608 22.4282 40 21.3683 40 20.2632V5.30974C40 4.20468 39.5608 3.14476 38.7793 2.36327C37.9981 1.58177 36.9382 1.14288 35.8331 1.14288H12.1298C11.0247 1.14288 9.9648 1.58175 9.18332 2.36327C8.40214 3.14476 7.96293 4.20459 7.96293 5.30974V9.0596H4.16685C3.06179 9.0596 2.00187 9.49847 1.22072 10.28C0.439221 11.0612 0 12.1211 0 13.2261V28.1796C0 29.2847 0.439188 30.3446 1.22072 31.1261C2.00189 31.9073 3.06179 32.3465 4.16685 32.3465H5.60194V38.4573C5.60549 38.6262 5.69203 38.7822 5.83348 38.8742L5.83347 38.8742ZM8.88907 5.3099C8.88907 4.45029 9.2304 3.62615 9.83813 3.01835C10.4459 2.41059 11.27 2.06896 12.1297 2.06896H35.833C36.6926 2.06896 37.5168 2.41062 38.1246 3.01835C38.7323 3.62611 39.0736 4.45021 39.0736 5.3099V20.2634C39.0736 21.1228 38.7323 21.9471 38.1246 22.5549C37.5168 23.1627 36.6927 23.504 35.833 23.504H32.037V13.2264C32.037 12.1213 31.5978 11.0614 30.8166 10.2802C30.0351 9.49874 28.9752 9.05985 27.8701 9.05985H8.8889L8.88907 5.3099ZM4.16683 31.4206C3.30722 31.4206 2.48307 31.079 1.87528 30.4712C1.26752 29.8635 0.926219 29.0394 0.926219 28.1797V13.2262C0.926219 12.3668 1.26756 11.5425 1.87528 10.9347C2.48304 10.3269 3.30714 9.98559 4.16683 9.98559H27.8702C28.7298 9.98559 29.5539 10.3269 30.1617 10.9347C30.7695 11.5424 31.1108 12.3668 31.1108 13.2262V28.1797C31.1108 29.0393 30.7695 29.8634 30.1617 30.4712C29.554 31.079 28.7299 31.4206 27.8702 31.4206H14.4908L14.213 31.5133L6.52787 37.5318V31.8834C6.50656 31.6374 6.31118 31.442 6.06511 31.4207L4.16683 31.4206Z" fill="#1D1D1D"/>
<path d="M6.80556 17.393H15.1851C15.3117 17.4082 15.4386 17.3643 15.5287 17.2742C15.6191 17.1838 15.663 17.0572 15.6478 16.9303C15.6478 16.8076 15.5991 16.6897 15.5122 16.6028C15.4253 16.516 15.3078 16.4672 15.1851 16.4672H6.80556C6.55012 16.4672 6.34279 16.6745 6.34279 16.9303C6.32762 17.0572 6.37154 17.1838 6.46196 17.2742C6.55205 17.3643 6.67897 17.4082 6.80555 17.393L6.80556 17.393Z" fill="#1D1D1D"/>
<path d="M6.80555 24.6152H24.9997C25.1267 24.63 25.2532 24.5861 25.3437 24.496C25.4338 24.4056 25.4777 24.279 25.4625 24.1521C25.4625 24.0294 25.4137 23.9115 25.3272 23.8247C25.2403 23.7378 25.1224 23.689 24.9997 23.689H6.80556C6.55012 23.689 6.34279 23.8963 6.34279 24.1521C6.32762 24.279 6.37154 24.4056 6.46196 24.496C6.55205 24.5861 6.67897 24.6301 6.80555 24.6152V24.6152Z" fill="#1D1D1D"/>
</svg>
