<svg width="40" height="40" fill="none" xmlns="http://www.w3.org/2000/svg"><path d="M5.833 38.874h.232l.278-.093 8.333-6.48L27.87 32.3a4.167 4.167 0 004.167-4.166V24.43h3.797A4.166 4.166 0 0040 20.263V5.31a4.167 4.167 0 00-4.167-4.167H12.13A4.167 4.167 0 007.963 5.31v3.75H4.167A4.165 4.165 0 000 13.226V28.18a4.167 4.167 0 004.167 4.166h1.435v6.111a.51.51 0 00.231.417zM8.89 5.31a3.24 3.24 0 013.24-3.241h23.704a3.241 3.241 0 013.24 3.24v14.954a3.24 3.24 0 01-3.24 3.241h-3.796V13.226A4.167 4.167 0 0027.87 9.06H8.89V5.31zM4.167 31.42a3.24 3.24 0 01-3.24-3.24V13.226a3.24 3.24 0 013.24-3.24H27.87a3.24 3.24 0 013.24 3.24V28.18a3.24 3.24 0 01-3.24 3.24H14.49l-.277.093-7.685 6.019v-5.649a.509.509 0 00-.463-.462H4.167z" fill="#1D1D1D"/><path d="M6.806 17.393h8.38a.416.416 0 00.462-.463.463.463 0 00-.463-.463h-8.38a.463.463 0 00-.462.463.416.416 0 00.463.463zM6.806 24.615H25a.419.419 0 00.462-.463.464.464 0 00-.462-.463H6.806a.463.463 0 00-.463.463.416.416 0 00.463.463z" fill="#1D1D1D"/></svg>