<svg width="70" height="70" viewBox="0 0 70 70" fill="none" xmlns="http://www.w3.org/2000/svg">
<path d="M41.7949 38.7915V66L32.6813 59.4575H6.32187C3.38301 59.4575 1.00061 56.997 1.00061 53.9641L1 30.1589C1 27.126 3.3824 24.6662 6.32126 24.6662H28.2054M69 9.49273C69 6.45983 66.6176 4 63.6787 4L33.5263 4.00062C30.5881 4.00062 28.2057 6.45983 28.2057 9.49335V33.2977V45.3337L37.3193 38.7918H63.6787C66.6176 38.7918 69 36.3307 69 33.2971V9.49273Z" stroke="#1D1D1D" stroke-miterlimit="10"/>
<path d="M46 16.44C46.2067 16.2467 46.4333 16.0633 46.68 15.89C46.9333 15.7167 47.2067 15.5633 47.5 15.43C47.8 15.2967 48.12 15.1933 48.46 15.12C48.8067 15.04 49.18 15 49.58 15C50.1067 15 50.5933 15.0767 51.04 15.23C51.4933 15.3833 51.8833 15.6 52.21 15.88C52.5367 16.16 52.7933 16.5 52.98 16.9C53.1667 17.3 53.26 17.75 53.26 18.25C53.26 18.7567 53.1833 19.1933 53.03 19.56C52.8833 19.9267 52.6933 20.25 52.46 20.53C52.2333 20.8033 51.9833 21.0433 51.71 21.25C51.4433 21.45 51.19 21.64 50.95 21.82C50.71 22 50.5033 22.18 50.33 22.36C50.1633 22.54 50.0667 22.74 50.04 22.96L49.86 24.49H48.64L48.52 22.83C48.4933 22.53 48.55 22.27 48.69 22.05C48.83 21.8233 49.0133 21.6133 49.24 21.42C49.4667 21.22 49.7167 21.0267 49.99 20.84C50.2633 20.6467 50.5167 20.4333 50.75 20.2C50.99 19.9667 51.19 19.7033 51.35 19.41C51.51 19.11 51.59 18.7533 51.59 18.34C51.59 18.0533 51.5333 17.7933 51.42 17.56C51.3067 17.3267 51.1533 17.13 50.96 16.97C50.7667 16.8033 50.5367 16.6767 50.27 16.59C50.01 16.5033 49.73 16.46 49.43 16.46C49.0233 16.46 48.6733 16.51 48.38 16.61C48.0933 16.71 47.85 16.82 47.65 16.94C47.45 17.06 47.2867 17.17 47.16 17.27C47.04 17.37 46.94 17.42 46.86 17.42C46.6933 17.42 46.5633 17.3433 46.47 17.19L46 16.44ZM47.95 28.39C47.95 28.2167 47.98 28.0533 48.04 27.9C48.1067 27.7467 48.1933 27.6133 48.3 27.5C48.4133 27.3867 48.5467 27.2967 48.7 27.23C48.8533 27.1633 49.0167 27.13 49.19 27.13C49.3633 27.13 49.5267 27.1633 49.68 27.23C49.8333 27.2967 49.9667 27.3867 50.08 27.5C50.1933 27.6133 50.2833 27.7467 50.35 27.9C50.4167 28.0533 50.45 28.2167 50.45 28.39C50.45 28.57 50.4167 28.7367 50.35 28.89C50.2833 29.0367 50.1933 29.1667 50.08 29.28C49.9667 29.3933 49.8333 29.48 49.68 29.54C49.5267 29.6067 49.3633 29.64 49.19 29.64C49.0167 29.64 48.8533 29.6067 48.7 29.54C48.5467 29.48 48.4133 29.3933 48.3 29.28C48.1933 29.1667 48.1067 29.0367 48.04 28.89C47.98 28.7367 47.95 28.57 47.95 28.39Z" fill="#1D1D1D"/>
<path d="M13 42.26C13 42.0867 13.03 41.9233 13.09 41.77C13.1567 41.6167 13.2433 41.4833 13.35 41.37C13.4633 41.2567 13.5967 41.1667 13.75 41.1C13.9033 41.0333 14.0667 41 14.24 41C14.4133 41 14.5767 41.0333 14.73 41.1C14.8833 41.1667 15.0167 41.2567 15.13 41.37C15.2433 41.4833 15.3333 41.6167 15.4 41.77C15.4667 41.9233 15.5 42.0867 15.5 42.26C15.5 42.44 15.4667 42.6067 15.4 42.76C15.3333 42.9067 15.2433 43.0367 15.13 43.15C15.0167 43.2633 14.8833 43.35 14.73 43.41C14.5767 43.4767 14.4133 43.51 14.24 43.51C14.0667 43.51 13.9033 43.4767 13.75 43.41C13.5967 43.35 13.4633 43.2633 13.35 43.15C13.2433 43.0367 13.1567 42.9067 13.09 42.76C13.03 42.6067 13 42.44 13 42.26Z" fill="#1D1D1D"/>
<path d="M17.7266 42.26C17.7266 42.0867 17.7566 41.9233 17.8166 41.77C17.8832 41.6167 17.9699 41.4833 18.0766 41.37C18.1899 41.2567 18.3232 41.1667 18.4766 41.1C18.6299 41.0333 18.7932 41 18.9666 41C19.1399 41 19.3032 41.0333 19.4566 41.1C19.6099 41.1667 19.7432 41.2567 19.8566 41.37C19.9699 41.4833 20.0599 41.6167 20.1266 41.77C20.1932 41.9233 20.2266 42.0867 20.2266 42.26C20.2266 42.44 20.1932 42.6067 20.1266 42.76C20.0599 42.9067 19.9699 43.0367 19.8566 43.15C19.7432 43.2633 19.6099 43.35 19.4566 43.41C19.3032 43.4767 19.1399 43.51 18.9666 43.51C18.7932 43.51 18.6299 43.4767 18.4766 43.41C18.3232 43.35 18.1899 43.2633 18.0766 43.15C17.9699 43.0367 17.8832 42.9067 17.8166 42.76C17.7566 42.6067 17.7266 42.44 17.7266 42.26Z" fill="#1D1D1D"/>
</svg>
