<svg width="70" height="70" viewBox="0 0 70 70" fill="none" xmlns="http://www.w3.org/2000/svg">
<g clip-path="url(#clip0_44_1983)">
<path d="M4.80422 69.0101C4.94539 69.5947 5.65946 69.9999 6.54376 69.9999H6.56262L23.594 69.8873C24.2459 69.8827 24.8127 69.6599 25.1098 69.292C25.2999 69.056 25.3718 68.7731 25.3131 68.4928C24.9059 66.5626 24.7469 64.7287 24.6455 62.4897C24.6827 62.4882 24.7199 62.4861 24.7566 62.4846C25.9717 62.4194 26.9217 61.4204 26.9191 60.2104C26.9145 58.8419 26.7927 57.4733 26.5358 55.9046C26.3508 54.771 25.3503 53.954 24.1902 54.0009C23.7794 54.0182 23.3691 54.0325 22.9583 54.0488C22.9058 52.4887 22.9196 50.7435 23.0072 48.827C23.0368 48.1762 23.2978 47.5747 23.7407 47.1324C25.5511 45.3266 28.836 42.9234 33.5021 39.9917C35.0499 39.0289 36.0862 37.4372 36.3456 35.6262C36.5887 33.9335 36.8644 32.0151 37.2717 30.2542C37.4526 29.4932 37.4266 28.7231 37.2161 28.0274H42.2711C43.845 28.0274 45.1254 26.7471 45.1254 25.1732V21.8511C45.1254 21.2318 44.6738 20.7135 44.0504 20.6187C42.4373 20.3781 41.2206 18.9622 41.2206 17.3241C41.2206 15.6864 42.4372 14.2701 44.0519 14.0295C44.6737 13.9347 45.1253 13.4163 45.1253 12.7971V9.47496C45.1253 7.90113 43.8449 6.62074 42.271 6.62074H39.1615C39.6615 5.71095 39.8292 4.64829 39.6227 3.57537C39.2746 1.82813 37.8685 0.424957 36.1223 0.0834941C34.7803 -0.173901 33.4194 0.169631 32.3833 1.02487C31.3496 1.8791 30.7568 3.13654 30.7568 4.47395C30.7568 5.23388 30.9469 5.9678 31.3047 6.62019H27.7369C26.1631 6.62019 24.8827 7.90051 24.8827 9.47441V11.9295C24.2772 11.6476 23.6702 11.3683 23.0688 11.0773C22.0637 10.5957 20.8899 10.5972 19.9292 11.0814C19.3742 11.3587 18.8217 11.64 18.2682 11.9224C17.5919 12.2669 16.9161 12.6115 16.233 12.9494C15.3431 13.4015 14.6759 14.1966 14.4028 15.1288L13.9329 16.7236C13.7168 17.4621 13.5042 18.1869 13.1831 19.2588C11.0776 19.0198 10.3829 20.2772 9.81872 21.3042C9.64543 21.6202 9.47927 21.9224 9.28203 22.1727C7.97215 22.2318 5.92168 23.1961 5.10618 24.2849C3.71267 24.2247 1.87331 24.7365 1.56082 26.1687C-0.00753927 33.3507 1.75959 41.3408 6.28558 47.5438C6.64033 48.0295 6.80699 48.6396 6.75346 49.2619C6.61381 50.8995 6.46702 52.5947 6.12655 54.7033C5.37171 54.7333 4.61835 54.7598 3.86353 54.7919C2.67037 54.8409 1.70802 55.8164 1.67188 57.0122C1.63416 58.2833 1.79828 59.6294 2.15863 61.0126C2.37167 61.8302 3.04241 62.4495 3.85838 62.635C3.97203 64.7513 4.26867 66.7946 4.80231 69.0096L4.80422 69.0101ZM24.1725 68.612C24.0823 68.6671 23.883 68.7435 23.5869 68.7451L6.55546 68.8577C6.17422 68.849 5.97034 68.7522 5.90409 68.6977C5.40511 66.6181 5.12376 64.6935 5.00857 62.7114C7.3491 62.7807 9.69811 62.82 12.0509 62.82C15.8741 62.82 19.7023 62.7242 23.505 62.5422C23.5875 64.3852 23.7323 66.4724 24.1722 68.6121L24.1725 68.612ZM27.7387 7.76198H32.4309C32.6597 7.76198 32.8672 7.62487 32.9569 7.41437C33.046 7.20336 33.0007 6.95922 32.8417 6.7946C32.2357 6.16718 31.9008 5.34354 31.9008 4.47455C31.9008 3.47762 32.3422 2.5419 33.1128 1.9053C33.885 1.26769 34.9053 1.01182 35.9079 1.20448C37.203 1.45729 38.2469 2.5001 38.5047 3.79514C38.7183 4.90421 38.3987 5.99801 37.6281 6.79511C37.469 6.96024 37.4237 7.20387 37.5129 7.41488C37.6026 7.62538 37.8095 7.76249 38.0389 7.76249H42.2743C43.2183 7.76249 43.9869 8.53109 43.9869 9.47502V12.7971C43.9869 12.8481 43.9436 12.8919 43.8854 12.9006C41.7173 13.2232 40.0826 15.1254 40.0826 17.3241C40.0826 19.5229 41.7177 21.425 43.8839 21.7476C43.943 21.7568 43.9873 21.8001 43.9873 21.8511V25.1732C43.9873 26.1171 43.2187 26.8857 42.2748 26.8857H36.6653C35.7728 25.6237 34.2896 25.0779 32.6439 25.4499C32.5257 25.4769 32.4191 25.5406 32.3396 25.6319C31.9951 26.0284 31.6796 26.4499 31.3901 26.8857H27.7413C26.7973 26.8857 26.0287 26.1171 26.0287 25.1732V18.2313C26.4375 18.2751 26.8427 18.2797 27.2387 18.2333C28.5766 18.0718 29.5852 17.3572 30.1582 16.1636C30.5236 15.3899 30.1903 14.4495 29.4146 14.0662C28.2953 13.5158 27.144 12.9826 26.0282 12.4663V9.47495C26.0282 8.53102 26.7968 7.76242 27.7408 7.76242L27.7387 7.76198ZM20.1052 21.7206L20.0812 21.0183C20.0522 20.0402 20.465 19.1146 21.2133 18.478L21.4293 18.2935C21.9095 17.8852 22.386 17.4795 22.8951 17.0488C23.5384 17.4759 24.2091 17.7894 24.8834 17.9938V25.1717C24.8834 26.7455 26.1637 28.0259 27.7376 28.0259H30.7167C30.1163 29.1849 29.7116 30.4106 29.5607 31.6084C28.3115 32.531 28.0827 32.6421 26.1341 32.8643C25.5434 32.9265 24.9705 32.6849 24.604 32.216C24.0484 31.4963 23.45 30.9035 22.8716 30.3312C21.9134 29.3827 20.9225 28.4031 20.0377 26.7558C20.1815 23.8409 20.1453 22.8562 20.1035 21.7201L20.1052 21.7206ZM7.20868 46.8717C2.93654 41.0175 1.2 33.1779 2.67663 26.4126C2.8438 25.6486 4.36881 25.3311 5.33918 25.4478C5.58484 25.4722 5.81573 25.3479 5.92226 25.1282C6.303 24.3372 8.49517 23.2317 9.49673 23.3148C9.67154 23.3271 9.8326 23.2654 9.95035 23.1436C10.326 22.7562 10.5783 22.2975 10.8214 21.8541C11.3979 20.8026 11.7842 20.1084 13.4713 20.4616C13.7587 20.5223 14.0498 20.351 14.1344 20.0671C14.5396 18.718 14.7822 17.8913 15.0299 17.0452L15.4993 15.4514C15.6843 14.8184 16.141 14.2771 16.746 13.9693C17.4275 13.6319 18.1079 13.2853 18.7873 12.9387C19.3388 12.6584 19.8898 12.3776 20.4429 12.1008C21.0912 11.7741 21.8888 11.7762 22.5744 12.1049C23.5407 12.5723 24.5168 13.0239 25.4933 13.4755C26.6192 13.9969 27.7828 14.5351 28.9071 15.088C29.1268 15.1966 29.2242 15.4596 29.1248 15.6711C28.7252 16.5039 28.0437 16.984 27.1018 17.0983C25.8516 17.2415 24.4673 16.8073 23.2038 15.871C22.9907 15.7135 22.6987 15.7227 22.4958 15.8934C21.8557 16.4322 21.2746 16.9271 20.69 17.425L20.4739 17.6095C19.4602 18.4719 18.9005 19.7268 18.9392 21.0535L18.9637 21.764C19.0055 22.8934 19.0417 23.8695 18.8908 26.8567C18.8857 26.9581 18.9081 27.0595 18.9545 27.1498C19.9402 29.0371 21.0229 30.1085 22.0697 31.1441C22.6472 31.7149 23.1925 32.2552 23.7028 32.9168C24.3159 33.7022 25.2675 34.1105 26.2608 34.0004C28.5503 33.7394 28.8744 33.5396 30.4407 32.379C30.5707 32.2832 30.6532 32.1364 30.6685 31.9754C30.8459 30.1401 31.7404 28.1176 33.0722 26.5279C33.8077 26.4025 35.2267 26.3989 35.9896 27.9877C36.2673 28.5718 36.3285 29.2833 36.1598 29.9948C35.7414 31.8063 35.4615 33.7501 35.2149 35.4653C35.0044 36.9413 34.1593 38.2385 32.8962 39.0243C28.0899 42.0447 24.8311 44.4326 22.9345 46.325C22.2882 46.9688 21.909 47.8392 21.8662 48.7755C21.7765 50.7241 21.7627 52.5019 21.8167 54.0936C19.2291 54.1971 16.6414 54.299 14.0548 54.3964C11.8005 54.4815 9.54559 54.5717 7.29026 54.6599C7.61085 52.6155 7.75357 50.9621 7.89017 49.3612C7.96662 48.4652 7.72401 47.5809 7.20668 46.873L7.20868 46.8717ZM3.26522 60.7246C2.93188 59.4463 2.77999 58.2088 2.81517 57.0463C2.83301 56.4469 3.31466 55.9576 3.91252 55.9331C7.30954 55.7909 10.7046 55.6635 14.1 55.5356C17.4788 55.4082 20.8579 55.2818 24.2392 55.1401C24.255 55.1401 24.2718 55.1396 24.2876 55.1396C24.8426 55.1396 25.3207 55.5397 25.4099 56.0876C25.6576 57.5958 25.7748 58.9066 25.7789 60.2124C25.7804 60.8148 25.3049 61.3113 24.6974 61.3439C17.9421 61.7027 11.0897 61.7736 4.32701 61.5529C3.82548 61.5371 3.38869 61.1961 3.26637 60.7246L3.26522 60.7246Z" fill="#183064"/>
<path d="M68.8341 25.0909V10.1381C68.8341 8.62426 67.6022 7.39189 66.0879 7.39189H52.2415C50.7277 7.39189 49.4953 8.62379 49.4953 10.1381V13.0677C49.1584 12.9831 48.8139 12.9403 48.4627 12.9403C46.0957 12.9403 44.1711 14.8654 44.1711 17.2314C44.1711 19.5973 46.0962 21.5224 48.4627 21.5224C48.8134 21.5224 49.1584 21.4796 49.4953 21.395V25.0912C49.4953 26.0331 49.9729 26.8654 50.6987 27.3598C49.9729 27.8547 49.4953 28.687 49.4953 29.6295V32.5591C49.1584 32.4745 48.8139 32.4317 48.4627 32.4317C46.0957 32.4317 44.1711 34.3568 44.1711 36.7228C44.1711 39.0887 46.0962 41.0138 48.4627 41.0138C48.8134 41.0138 49.1584 40.971 49.4953 40.8864V44.5826C49.4953 46.0964 50.7272 47.3277 52.2415 47.3277H55.1584C54.6951 48.1917 54.5427 49.1942 54.7404 50.206C55.0697 51.8843 56.4177 53.23 58.0952 53.5546C58.377 53.6086 58.6599 53.6361 58.9392 53.6361C59.9362 53.6361 60.901 53.2967 61.6758 52.6575C62.6686 51.8385 63.2374 50.6316 63.2374 49.3461C63.2374 48.6326 63.0621 47.943 62.7334 47.3283H66.086C67.5998 47.3283 68.8322 46.0964 68.8322 44.5821V29.6292C68.8322 28.6868 68.3546 27.8545 67.6288 27.3595C68.3546 26.8646 68.8322 26.0323 68.8322 25.0899L68.8341 25.0909ZM67.6924 44.5832C67.6924 45.468 66.9728 46.1877 66.0879 46.1877H61.6169C61.3881 46.1877 61.1801 46.3248 61.091 46.5358C61.0018 46.7468 61.0476 46.9914 61.2067 47.1556C61.7811 47.7468 62.0971 48.5251 62.0971 49.3472C62.0971 50.2906 61.6791 51.1769 60.9503 51.7779C60.2219 52.3783 59.2581 52.6189 58.3132 52.4344C57.0874 52.1968 56.1017 51.2137 55.8616 49.9874C55.6572 48.941 55.9584 47.9083 56.6888 47.1556C56.8478 46.9904 56.8937 46.7468 56.8045 46.5358C56.7153 46.3248 56.5079 46.1877 56.2785 46.1877H52.2414C51.3566 46.1877 50.6369 45.4685 50.6369 44.5842V40.0776C50.6369 39.8814 50.536 39.6989 50.3703 39.5944C50.2042 39.49 49.9957 39.4782 49.8193 39.5623C49.3876 39.7682 48.931 39.8732 48.4626 39.8732C46.7261 39.8732 45.3127 38.4604 45.3127 36.7239C45.3127 34.9873 46.7261 33.5745 48.4626 33.5745C48.9321 33.5745 49.3887 33.679 49.819 33.8854C49.9963 33.97 50.2043 33.9578 50.3704 33.8533C50.5361 33.7488 50.637 33.5669 50.637 33.3701V29.6301C50.637 28.7453 51.3567 28.0256 52.2415 28.0256H55.0677C54.6783 28.8457 54.557 29.7764 54.7405 30.7152C55.0697 32.3935 56.4178 33.7391 58.0952 34.0638C58.3771 34.1178 58.6599 34.1453 58.9403 34.1453C59.9362 34.1453 60.902 33.8059 61.6763 33.1667C62.6691 32.3477 63.238 31.1408 63.238 29.8553C63.238 29.2126 63.0891 28.5928 62.82 28.0256H66.0866C66.9714 28.0256 67.6911 28.7453 67.6911 29.6301V44.583L67.6924 44.5832ZM67.6924 25.0909C67.6924 25.9757 66.9728 26.6954 66.0879 26.6954H61.6169C61.3881 26.6954 61.1801 26.8325 61.091 27.0436C61.0018 27.2546 61.0476 27.4992 61.2067 27.6633C61.7811 28.2546 62.0971 29.0328 62.0971 29.8545C62.0971 30.7979 61.6791 31.6842 60.9503 32.2851C60.2219 32.8856 59.2581 33.1261 58.3132 32.9416C57.0874 32.7041 56.1017 31.7209 55.8616 30.4951C55.6572 29.4488 55.9584 28.4161 56.6888 27.6634C56.8478 27.4982 56.8937 27.2546 56.8045 27.0436C56.7153 26.8326 56.5079 26.6955 56.2785 26.6955H52.2414C51.3566 26.6955 50.6369 25.9763 50.6369 25.0915V20.5849C50.6369 20.3887 50.536 20.2062 50.3703 20.1017C50.2781 20.0436 50.1716 20.014 50.066 20.014C49.982 20.014 49.8978 20.0329 49.8189 20.0701C49.3887 20.2765 48.932 20.381 48.4625 20.381C46.726 20.381 45.3126 18.9682 45.3126 17.2316C45.3126 15.4951 46.726 14.0823 48.4625 14.0823C48.9314 14.0823 49.3881 14.1873 49.8192 14.3932C49.9956 14.4783 50.2041 14.4656 50.3702 14.3611C50.5359 14.2566 50.6368 14.0746 50.6368 13.8779V10.1379C50.6368 9.25306 51.3565 8.53336 52.2413 8.53336H66.0877C66.9725 8.53336 67.6922 9.25303 67.6922 10.1379V25.0907L67.6924 25.0909Z" fill="#183064"/>
</g>
<defs>
<clipPath id="clip0_44_1983">
<rect width="70" height="70" fill="white"/>
</clipPath>
</defs>
</svg>
