<svg width="70" height="70" viewBox="0 0 70 70" fill="none" xmlns="http://www.w3.org/2000/svg">
<g clip-path="url(#clip0_44_1990)">
<path d="M34.7133 69.9997C34.5733 69.9997 34.3635 69.93 34.2235 69.79C33.944 69.5105 33.8738 69.0905 34.1538 68.811L40.0278 62.0975L36.7411 43.2863C36.6713 42.8668 36.9508 42.517 37.3006 42.4473C37.7201 42.3775 38.0698 42.657 38.1396 43.0068L41.4961 62.1676C41.5658 62.3773 41.4961 62.5871 41.3561 62.7969L35.2723 69.7899C35.063 69.9299 34.923 69.9996 34.7133 69.9996L34.7133 69.9997Z" fill="#183064"/>
<path d="M34.7132 69.9999C34.5035 69.9999 34.2937 69.9302 34.1537 69.7902L28.0699 62.7972C27.9299 62.6572 27.8602 62.4474 27.9299 62.1679L31.2167 43.0071C31.2864 42.5876 31.6362 42.3778 32.0557 42.4476C32.4752 42.5173 32.6849 42.8671 32.6152 43.2866L29.3285 62.0978L35.2025 68.8113C35.482 69.0908 35.4122 69.5806 35.1327 69.7903C35.0629 69.9303 34.8532 70 34.7132 70L34.7132 69.9999Z" fill="#183064"/>
<path d="M34.7132 42.3776C34.5732 42.3776 34.5035 42.3776 34.3635 42.3078L29.2587 39.6503C28.909 39.4406 28.769 39.0211 28.9792 38.6713C29.189 38.3216 29.6085 38.1816 29.9582 38.3918L34.7132 40.9093L39.4682 38.3918C39.8179 38.1821 40.2375 38.3221 40.4472 38.6713C40.6569 39.0211 40.5169 39.4406 40.1677 39.6503L35.0629 42.3078C34.9229 42.3073 34.7829 42.3776 34.7132 42.3776H34.7132Z" fill="#183064"/>
<path d="M34.7133 35.2447C34.2938 35.2447 34.0138 34.895 34.0138 34.5452C34.0138 34.1257 34.3635 33.8457 34.7133 33.8457C37.72 33.8457 40.6576 32.1673 42.4755 29.3702C45.8321 24.1952 46.5315 19.1601 46.5315 12.587C46.4612 12.1675 45.972 1.4682 34.7132 1.4682C34.2937 1.4682 34.0137 1.11845 34.0137 0.768699C34.0137 0.349194 34.3634 0.0691986 34.7132 0.0691986C47.3705 0.0691986 47.86 12.4469 47.86 12.5867C47.86 19.4397 47.1605 24.7546 43.5943 30.1391C41.5661 33.3567 38.2095 35.2449 34.713 35.2449L34.7133 35.2447Z" fill="#183064"/>
<path d="M34.7134 35.2446C31.2169 35.2446 27.8603 33.3564 25.7623 30.1399C22.196 24.6853 21.4966 19.3709 21.4966 12.5874C21.4966 12.4474 21.9863 0 34.6434 0C35.0629 0 35.3429 0.34975 35.3429 0.699501C35.3429 1.11901 34.9932 1.399 34.6434 1.399C23.3847 1.46827 22.9651 12.1675 22.9651 12.6572C22.9651 19.1605 23.6646 24.2658 27.0211 29.4405C28.8391 32.2374 31.7064 33.916 34.7833 33.916C35.2028 33.916 35.4828 34.2657 35.4828 34.6155C35.4126 34.9652 35.1326 35.2447 34.7131 35.2447L34.7134 35.2446Z" fill="#183064"/>
<path d="M25.4825 62.797H8L9.53846 49.8599C9.67846 48.9507 9.81797 48.1116 10.098 47.4121C11.4964 43.7058 14.6432 41.5381 16.951 40.9785C17.0207 40.9785 23.0348 39.5097 23.0348 39.5097C25.8317 38.8805 27.9298 36.503 28.1395 33.7055V32.5866C28.1395 32.1671 28.4191 31.8871 28.8391 31.8871C29.2586 31.8871 29.5385 32.1666 29.5385 32.5866V33.7753C29.3288 37.202 26.7416 40.1391 23.3148 40.9083L17.231 42.3771C15.2033 42.7966 12.5457 44.8946 11.4268 47.9013C11.217 48.5306 11.077 49.2301 10.937 49.9993L9.60824 61.3981H25.4824C25.9019 61.3981 26.1819 61.7478 26.1819 62.0976C26.1819 62.5171 25.9024 62.7971 25.4824 62.7971L25.4825 62.797Z" fill="#183064"/>
<path d="M61.4266 62.7972H44.2238C43.8043 62.7972 43.5243 62.4475 43.5243 62.0977C43.5243 61.6782 43.8741 61.3982 44.2238 61.3982H59.8182L58.4894 49.9995C58.4197 49.1605 58.2099 48.5307 57.9997 47.9015C56.8807 44.8947 54.2237 42.7967 52.1955 42.3773L46.1117 40.8388C42.685 40.0695 40.1674 37.1325 39.8879 33.7058C39.8879 33.2863 39.8182 32.9365 39.8879 32.5171C39.8879 32.0975 40.2377 31.8176 40.5874 31.8176C41.0069 31.8176 41.2869 32.1673 41.2869 32.5171V33.636C41.4967 36.433 43.5946 38.811 46.3917 39.4402C46.3917 39.4402 52.4057 40.909 52.4755 40.9787C54.7832 41.4685 57.93 43.706 59.3285 47.4123C59.608 48.1118 59.748 48.9507 59.888 49.8601L61.4266 62.7972Z" fill="#183064"/>
</g>
<defs>
<clipPath id="clip0_44_1990">
<rect width="70" height="70" fill="white"/>
</clipPath>
</defs>
</svg>
