<svg width="70" height="70" viewBox="0 0 70 70" fill="none" xmlns="http://www.w3.org/2000/svg">
<g clip-path="url(#clip0_44_2002)">
<path d="M35.3577 6.48711C36.9579 6.48711 38.2671 5.17784 38.2671 3.57765H37.1034C37.1034 4.53778 36.3178 5.32332 35.3577 5.32332C34.3976 5.32332 33.612 4.53778 33.612 3.57765H32.4482C32.4482 5.17782 33.7575 6.48711 35.3577 6.48711Z" fill="#183064"/>
<path d="M62.6632 34.7963L59.1427 25.6316C57.6443 21.733 54.3421 18.7217 50.3271 17.5724L49.9053 17.456V0.0870561H48.7415V17.1075L40.595 14.78V10.0521C41.6133 9.32471 42.4716 8.39366 43.1117 7.31726C44.1591 5.55709 44.5665 3.47679 44.2755 1.4401L44.0718 -6.10352e-05L42.9226 0.159956L43.1263 1.60012C43.65 5.22234 41.5261 8.78644 38.1075 10.0666C36.3327 10.7358 34.3689 10.7358 32.5941 10.0666C29.1755 8.78644 27.0662 5.22234 27.5753 1.60012L27.779 0.159956L26.6298 -6.10352e-05L26.4261 1.4401C26.1352 3.46216 26.557 5.55696 27.5899 7.31726C28.23 8.39377 29.0883 9.32482 30.1066 10.0521V14.78L21.9601 17.1075V0.0870561H20.7963V17.4414L20.3745 17.5577C16.3594 18.707 13.0571 21.7182 11.5589 25.617L8.03838 34.7817C7.99474 34.9126 7.98019 35.0581 8.03838 35.189L12.2135 46.856C12.7081 48.2234 13.4937 49.489 14.5119 50.5364L16.4467 55.2788L13.8573 63.9199C13.8136 64.0654 13.8282 64.2109 13.9009 64.3418L16.2285 68.9969C16.3303 69.2006 16.534 69.317 16.7522 69.317H40.0278C40.246 69.317 40.4497 69.186 40.5515 68.9969L42.8791 64.3418C42.9518 64.2109 42.9518 64.0509 42.9227 63.9199L41.7444 60.0067H51.1419L52.2475 69.957L53.4113 69.826L51.5637 53.1979C51.2582 50.4049 51.4037 47.6118 52.0001 44.8623L52.3202 44.0622C52.9893 42.4329 53.2366 40.6873 53.0766 38.9852L61.4267 35.8575L56.888 69.8399L58.0372 69.9999L62.6923 35.0865C62.7214 34.9847 62.7069 34.8828 62.6632 34.7956L62.6632 34.7963ZM30.8634 15.7688C31.1107 15.6961 31.2853 15.4633 31.2853 15.2161V10.7646C31.5762 10.91 31.8817 11.0555 32.1872 11.1719C33.2055 11.5501 34.282 11.7392 35.3585 11.7392C36.4351 11.7392 37.497 11.5501 38.5299 11.1719C38.8354 11.0555 39.1409 10.9246 39.4318 10.7646V15.2161C39.4318 15.4779 39.6064 15.7107 39.8537 15.7688L43.9124 16.9326L43.7087 17.6454C42.6468 21.355 39.2136 23.9444 35.3731 23.9444C31.5327 23.9444 28.0849 21.3549 27.0375 17.6454L26.8339 16.9326L30.8634 15.7688ZM9.56686 35.9894L17.6406 39.0152C17.5969 39.5535 17.5824 40.0917 17.6115 40.6445L14.1929 42.041C13.9019 42.1574 13.7565 42.5066 13.8729 42.7975L15.0948 45.8088L14.2802 47.7291C14.222 47.8746 14.1638 48.0346 14.1347 48.1947C13.8001 47.6564 13.5237 47.0745 13.3055 46.4781L9.56686 35.9894ZM16.0549 45.0524L15.1821 42.8993L18.4115 41.59L19.2844 43.7431L16.0549 45.0524ZM15.3566 49.5184C15.1821 49.082 15.1821 48.6164 15.3712 48.1801L16.1858 46.2598L20.0554 44.6887L21.2338 45.1834L17.4078 52.1805C17.3932 52.2096 17.3787 52.2533 17.3641 52.2969L17.0005 53.5189L15.3566 49.5184ZM39.6511 68.1681H17.103L15.0373 64.0368L18.4414 52.6753L23.4311 43.5251L27.388 42.7686L23.1839 52.2244C23.1112 52.399 23.1257 52.6172 23.2275 52.7772C23.3294 52.9372 23.5185 53.039 23.7222 53.039H33.0324C33.2361 53.039 33.4106 52.9372 33.527 52.7772C33.6434 52.6172 33.6579 52.3989 33.5707 52.2244L29.2065 42.3904L32.3196 41.6776L38.313 52.6754L41.7171 64.0368L39.6511 68.1681ZM24.8717 51.2926L25.1045 51.8745H24.6099L24.8717 51.2926ZM32.1308 51.8745H27.6648L31.3598 50.1434L32.1308 51.8745ZM26.1374 51.3072L25.5264 49.8234L28.3777 43.4226L30.8944 49.096L26.1374 51.3072ZM33.7456 41.8806L35.5204 41.3714C35.724 41.3132 35.8695 41.1532 35.9277 40.9495L37.0333 36.5127L39.2445 35.0434C39.39 34.9561 39.55 34.927 39.71 34.9706C39.87 35.0143 40.0009 35.1161 40.0882 35.2761L40.6556 36.4254C40.7865 36.7018 41.1065 36.8181 41.3975 36.7018L44.4669 35.4798C44.9615 35.2761 45.5289 35.3198 45.9943 35.5962C46.4598 35.8726 46.7654 36.3235 46.8526 36.8618L47.3763 40.5423C47.4782 41.2405 47.1436 41.9243 46.5471 42.2879L42.3284 44.8191C42.2411 44.8773 42.1393 44.9064 42.0229 44.9064H40.0153C39.9281 44.9064 39.8408 44.9209 39.768 44.9646L36.3058 46.5794L33.7456 41.8806ZM50.9549 33.4868L50.0239 34.1851C52.0604 36.8909 52.526 40.5278 51.2459 43.6554L50.8967 44.4991C50.8822 44.5282 50.8676 44.5573 50.8676 44.5864C50.2276 47.4667 50.0675 50.4198 50.3876 53.3439L50.9986 58.8428H41.3683L39.4044 52.282C39.3898 52.2383 39.3753 52.2092 39.3607 52.1656L36.8587 47.5832L40.1464 46.0558H42.0229C42.343 46.0558 42.6485 45.9685 42.9249 45.8085L47.1436 43.2773C48.1474 42.6663 48.7001 41.5316 48.5256 40.3679L48.0019 36.6874C47.871 35.8 47.3619 35.029 46.5763 34.5781C45.8053 34.1271 44.8742 34.0689 44.0451 34.389L41.4703 35.4218L41.1357 34.7526C40.9175 34.3017 40.5101 33.9816 40.0155 33.8507C39.5355 33.7198 39.0118 33.8071 38.6045 34.0835L36.2042 35.6836C36.0878 35.7709 36.0005 35.8873 35.9569 36.0328L34.8804 40.3679L33.1783 40.848L33.1201 40.7461C32.9892 40.5134 32.7419 40.397 32.4801 40.4552L22.937 42.4336C22.7625 42.4627 22.617 42.5791 22.5297 42.7246L21.7587 44.1502L20.4786 43.612L19.2566 40.6006C19.1693 40.3824 18.9656 40.2515 18.762 40.237C18.7038 38.0549 19.373 35.931 20.6968 34.1853L19.7657 33.487C18.7911 34.7817 18.1365 36.2801 17.8164 37.8366L9.34997 34.6653L12.6668 26.0388C14.0342 22.4747 17.0456 19.7253 20.7114 18.6779L25.7012 17.2522L25.9048 17.965C27.1122 22.1691 30.9963 25.1077 35.3606 25.1077C39.7248 25.1077 43.6234 22.1691 44.8163 17.965L45.02 17.2522L50.0098 18.6779C53.6756 19.7253 56.6869 22.4747 58.0543 26.0388L61.3712 34.6653L52.8901 37.8366C52.5846 36.2801 51.93 34.7963 50.9553 33.487L50.9549 33.4868Z" fill="#183064"/>
</g>
<defs>
<clipPath id="clip0_44_2002">
<rect width="70" height="70" fill="white"/>
</clipPath>
</defs>
</svg>
