<svg width="260" height="30" fill="none" xmlns="http://www.w3.org/2000/svg"><g clip-path="url(#clip0_44_2163)"><path fill-rule="evenodd" clip-rule="evenodd" d="M85.488 27.476h.827v-5.234h-.827v5.234zm-1.564-4.443h.826v-.79h-.826v.79zm-21.273-.79h-.004v.79h1.642v4.444h.906v-4.444h1.649v-.79H62.65zm28.958.306v1.137h-.619v.633h.626v2.234c.004.155.022.295.047.417.03.122.077.222.154.303.073.082.179.145.31.185.133.04.309.063.527.063.092 0 .18-.004.267-.015.084-.011.175-.019.266-.03v-.646a.913.913 0 01-.174.025c-.06.004-.118.004-.176.004a.584.584 0 01-.22-.033.232.232 0 01-.12-.1.43.43 0 01-.052-.162 2.275 2.275 0 01-.01-.229v-2.024h.745v-.625h-.745v-1.137h-.826zm-14.188 0v1.137h-.618v.633h.625v2.234c.003.155.023.295.047.417.03.122.077.222.155.303a.68.68 0 00.31.185c.131.04.307.063.526.063.091 0 .18-.004.267-.015.084-.011.176-.019.267-.03v-.646a.92.92 0 01-.175.025c-.059.004-.118.004-.175.004a.579.579 0 01-.22-.033.234.234 0 01-.121-.1.429.429 0 01-.051-.162 2.071 2.071 0 01-.01-.229v-2.024h.745v-.625h-.746v-1.137h-.826zm10.627 1.185c-.233.1-.436.237-.596.414a1.803 1.803 0 00-.369.633c-.084.242-.128.509-.128.797 0 .292.044.561.128.805s.208.454.37.632c.163.173.362.314.595.413.234.1.501.152.8.152.3 0 .567-.052.801-.152.234-.1.435-.236.596-.413.16-.178.285-.388.37-.632.084-.244.127-.513.127-.805a2.43 2.43 0 00-.127-.797 1.827 1.827 0 00-.37-.633 1.783 1.783 0 00-.596-.414c-.234-.1-.5-.151-.8-.151-.3 0-.567.052-.801.151zm.321 3.067a1.032 1.032 0 01-.332-.307 1.31 1.31 0 01-.195-.429 1.994 1.994 0 01-.061-.487c0-.162.022-.321.061-.484.045-.162.107-.302.195-.429.088-.12.197-.224.332-.302a.952.952 0 01.479-.118.953.953 0 01.812.42c.088.127.153.267.194.43.04.162.063.32.063.483a2 2 0 01-.063.487c-.044.16-.106.304-.194.43a.953.953 0 01-.812.424.908.908 0 01-.479-.118zm-7.51-3.074a1.03 1.03 0 00-.485.473h-.015v-.514h-.783V28.8h.827v-1.813h.015a1.217 1.217 0 00.545.454c.109.047.226.084.347.106.12.023.24.034.362.034.277 0 .516-.056.72-.166.204-.11.373-.255.505-.44.131-.184.23-.395.295-.636.066-.235.099-.483.099-.738 0-.277-.036-.539-.11-.783a1.899 1.899 0 00-.325-.642 1.508 1.508 0 00-.548-.433 1.733 1.733 0 00-.772-.16c-.245 0-.468.049-.676.145zm.125 3.088a.996.996 0 01-.33-.276 1.212 1.212 0 01-.208-.422 1.902 1.902 0 01-.069-.531c0-.407.088-.731.263-.976.177-.243.44-.365.786-.365a.9.9 0 01.45.115c.128.073.237.173.326.298.087.126.153.267.197.428a1.9 1.9 0 01.065.5c0 .166-.018.329-.05.487-.037.16-.1.3-.184.424a.996.996 0 01-.321.304.922.922 0 01-.478.118.917.917 0 01-.447-.104zm-6.627-3.18a1.723 1.723 0 00-.507.181c-.151.085-.279.196-.378.337a.87.87 0 00-.15.517c0 .191.033.35.103.479.066.13.157.237.27.318.114.086.242.152.384.2.143.047.293.092.446.125.15.033.296.066.443.096.146.03.274.067.388.107a.827.827 0 01.277.167.362.362 0 01.118.262.377.377 0 01-.077.258.544.544 0 01-.216.152 1.13 1.13 0 01-.278.07 2.48 2.48 0 01-.263.019c-.223 0-.413-.052-.575-.149-.156-.099-.248-.27-.273-.513v.008h-.834c.007.225.05.421.135.583.084.163.201.3.347.411.146.106.323.188.524.243.2.056.42.081.657.081.194 0 .392-.021.589-.066a1.85 1.85 0 00.54-.214c.162-.096.294-.226.396-.381.102-.159.154-.347.154-.573a.962.962 0 00-.106-.469 1.01 1.01 0 00-.275-.314 1.343 1.343 0 00-.388-.199 4.472 4.472 0 00-.442-.125c-.153-.033-.303-.067-.449-.097a2.697 2.697 0 01-.388-.106.88.88 0 01-.274-.159.32.32 0 01-.106-.247c0-.086.025-.152.073-.204a.495.495 0 01.179-.119c.073-.025.147-.044.227-.055.08-.01.15-.015.208-.015.183 0 .347.033.49.104.142.067.23.203.27.403h.863a1.268 1.268 0 00-.179-.54 1.192 1.192 0 00-.354-.362 1.433 1.433 0 00-.479-.203 2.47 2.47 0 00-.556-.063c-.168 0-.347.019-.534.052zm-6.18.023c-.12.051-.23.114-.328.195-.099.077-.183.17-.253.266a.856.856 0 00-.142.299h-.014v-.732h-.78v3.787h.827V25.67c0-.21.026-.395.08-.558.055-.162.128-.295.22-.406a.923.923 0 01.716-.332c.058 0 .117.003.18.01.062.008.12.016.179.027v-.806c-.04-.003-.077-.01-.114-.015a2.394 2.394 0 00-.201-.007.976.976 0 00-.37.075zm15.747 3.819h.826v-3.79h-.826v3.79zm-14.558-3.79v2.405c0 .498.11.872.33 1.12.22.247.577.369 1.07.369.209 0 .413-.06.615-.173.2-.116.35-.267.453-.46h.015v.529h.811V23.69h-.826v2.198c0 .148-.015.285-.047.41a.85.85 0 01-.158.325.74.74 0 01-.28.218c-.118.056-.26.082-.436.082-.226 0-.405-.071-.53-.207-.129-.137-.19-.374-.19-.706v-2.324h-.827z" fill="#fff"/><path fill-rule="evenodd" clip-rule="evenodd" d="M55.554 22.242l-3.787-.004 3.067 2.254-1.174 3.638 3.068-2.25 3.063 2.25-1.17-3.638 3.064-2.25h-3.788l-1.17-3.643-1.173 3.643z" fill="#00B67A"/><path fill-rule="evenodd" clip-rule="evenodd" d="M56.728 25.88l2.157-.564-.263-.824-1.894 1.389z" fill="#005128"/><path d="M41.109 24.542c0-.226.028-.425.086-.598.062-.177.146-.326.252-.446a1.066 1.066 0 01.82-.367 1.077 1.077 0 01.82.367c.105.12.187.269.244.446.063.173.094.372.094.598 0 .226-.031.427-.094.605-.057.173-.139.319-.244.439a1.09 1.09 0 01-.374.266 1.126 1.126 0 01-.9 0 1.109 1.109 0 01-.366-.266 1.35 1.35 0 01-.252-.44 1.957 1.957 0 01-.086-.604zm-.648 0c0 .274.038.528.115.763.077.235.192.442.346.62.153.172.342.309.568.41.225.096.484.144.777.144.297 0 .556-.048.776-.144.226-.101.415-.238.569-.41a1.78 1.78 0 00.345-.62c.077-.235.115-.49.115-.763 0-.274-.038-.528-.115-.763a1.698 1.698 0 00-.345-.62 1.607 1.607 0 00-.569-.417c-.22-.1-.479-.151-.776-.151-.293 0-.552.05-.777.151-.226.1-.415.24-.569.418-.153.172-.268.379-.345.619-.077.235-.115.49-.115.763zM44.793 22.677V26.4h.611v-2.103c0-.168.022-.321.065-.46.048-.145.117-.27.209-.375a.917.917 0 01.338-.245c.139-.057.302-.086.489-.086.235 0 .42.067.553.201.135.135.202.317.202.548v2.52h.611v-2.448a2.14 2.14 0 00-.064-.548 1.01 1.01 0 00-.209-.432c-.1-.12-.233-.213-.396-.28a1.612 1.612 0 00-.611-.101c-.552 0-.954.225-1.208.677h-.015v-.59h-.575z" fill="#fff"/><path fill-rule="evenodd" clip-rule="evenodd" d="M119.189 13.8h14.67V0h-14.67v13.8zm-16.21 0h14.668V0h-14.668v13.8zm-16.222 0h14.669V0h-14.67v13.8zm-16.22 0h14.67V0h-14.67v13.8zm-16.21 0h14.668V0H54.326v13.8z" fill="#00B67A"/><path fill-rule="evenodd" clip-rule="evenodd" d="M60.475 5.366h-3.927l3.177 2.31-1.213 3.74 8.32-6.05h-3.929L61.69 1.628l-1.215 3.738z" fill="#fff"/><path fill-rule="evenodd" clip-rule="evenodd" d="M61.69 9.105l3.177 2.311-.906-2.79-2.271.479zM125.339 5.366h-3.928l3.178 2.31-1.214 3.74 8.32-6.05h-3.928l-1.214-3.738-1.214 3.738z" fill="#fff"/><path fill-rule="evenodd" clip-rule="evenodd" d="M126.552 9.105l3.178 2.311-.906-2.79-2.272.479zM109.129 5.366h-3.928l3.177 2.31-1.213 3.74 8.32-6.05h-3.928l-1.214-3.738-1.214 3.738z" fill="#fff"/><path fill-rule="evenodd" clip-rule="evenodd" d="M110.343 9.105l3.177 2.311-.906-2.79-2.271.479zM92.908 5.366h-3.927l3.177 2.31-1.213 3.74 8.32-6.05h-3.929l-1.214-3.738-1.214 3.738z" fill="#fff"/><path fill-rule="evenodd" clip-rule="evenodd" d="M94.122 9.105l3.177 2.311-.906-2.79-2.271.479zM76.66 5.407h-3.987l3.225 2.319-1.232 3.753 8.445-6.072h-3.987l-1.233-3.753-1.231 3.753z" fill="#fff"/><path fill-rule="evenodd" clip-rule="evenodd" d="M77.732 9.115l3.162 2.364-.9-2.853-2.262.49z" fill="#fff"/><path fill-rule="evenodd" clip-rule="evenodd" d="M119.189 13.8h14.67V0h-14.67v13.8zm-16.21 0h14.668V0h-14.668v13.8zm-16.222 0h14.669V0h-14.67v13.8zm-16.22 0h14.67V0h-14.67v13.8zm-16.21 0h14.668V0H54.326v13.8z" fill="#00B67A"/><path fill-rule="evenodd" clip-rule="evenodd" d="M60.475 5.366h-3.927l3.177 2.31-1.213 3.74 8.32-6.05h-3.929L61.69 1.628l-1.215 3.738z" fill="#fff"/><path fill-rule="evenodd" clip-rule="evenodd" d="M61.69 9.105l3.177 2.311-.906-2.79-2.271.479zM125.339 5.366h-3.928l3.178 2.31-1.214 3.74 8.32-6.05h-3.928l-1.214-3.738-1.214 3.738z" fill="#fff"/><path fill-rule="evenodd" clip-rule="evenodd" d="M126.552 9.105l3.178 2.311-.906-2.79-2.272.479zM109.129 5.366h-3.928l3.177 2.31-1.213 3.74 8.32-6.05h-3.928l-1.214-3.738-1.214 3.738z" fill="#fff"/><path fill-rule="evenodd" clip-rule="evenodd" d="M110.343 9.105l3.177 2.311-.906-2.79-2.271.479zM92.908 5.366h-3.927l3.177 2.31-1.213 3.74 8.32-6.05h-3.929l-1.214-3.738-1.214 3.738z" fill="#fff"/><path fill-rule="evenodd" clip-rule="evenodd" d="M94.122 9.105l3.177 2.311-.906-2.79-2.271.479zM76.66 5.407h-3.987l3.225 2.319-1.232 3.753 8.445-6.072h-3.987l-1.233-3.753-1.231 3.753z" fill="#fff"/><path fill-rule="evenodd" clip-rule="evenodd" d="M77.732 9.115l3.162 2.364-.9-2.853-2.262.49z" fill="#fff"/><path d="M0 3.689h5.546v1.166H1.349v2.02h3.884v1.102H1.349v2.257H5.62V11.4H0V3.689zM8.123 8.462L6.192 5.816H7.68l1.165 1.718 1.22-1.718h1.424l-1.9 2.582 2.137 3.002h-1.478L8.835 9.337 7.465 11.4H6.02l2.104-2.938zM16.184 7.685c-.05-.346-.19-.605-.42-.778-.224-.18-.508-.27-.853-.27-.158 0-.327.03-.507.087-.18.05-.345.15-.496.302-.151.144-.277.35-.378.616-.1.259-.151.6-.151 1.026 0 .23.025.46.075.69.058.231.144.436.26.616.122.18.276.328.463.443.187.108.414.162.68.162.36 0 .655-.111.885-.335.237-.223.385-.536.442-.94h1.23c-.115.728-.392 1.286-.83 1.675-.432.381-1.008.572-1.727.572a2.95 2.95 0 01-1.165-.216 2.572 2.572 0 01-.842-.605 2.693 2.693 0 01-.528-.918 3.673 3.673 0 01-.173-1.144c0-.418.058-.81.173-1.178.115-.367.287-.684.517-.95.23-.274.515-.486.853-.637.345-.159.748-.238 1.208-.238.324 0 .63.043.917.13.295.08.554.201.777.367.23.166.417.374.561.626.144.252.23.551.26.897h-1.23zM22.244 8.117a1.88 1.88 0 00-.13-.562 1.317 1.317 0 00-.28-.464 1.22 1.22 0 00-.431-.324 1.194 1.194 0 00-.561-.13c-.216 0-.414.04-.594.12a1.314 1.314 0 00-.453.312c-.122.13-.223.285-.302.465a1.72 1.72 0 00-.119.583h2.87zm-2.87.81c0 .216.03.425.087.626.064.202.158.378.28.53.122.15.277.273.464.367.187.086.41.13.669.13.36 0 .647-.076.863-.228.223-.158.389-.392.497-.702h1.165a2.325 2.325 0 01-.335.81c-.158.238-.349.44-.572.605a2.435 2.435 0 01-.755.357c-.273.086-.56.13-.863.13-.439 0-.827-.073-1.165-.217a2.462 2.462 0 01-.863-.605 2.676 2.676 0 01-.53-.928 3.884 3.884 0 01-.172-1.188c0-.396.061-.77.184-1.124.13-.36.309-.673.54-.94.237-.273.52-.489.852-.647.33-.159.704-.238 1.122-.238.438 0 .83.094 1.176.281.352.18.643.421.874.724.23.302.395.651.496 1.047.108.39.137.792.086 1.21h-4.1zM24.442 3.689h1.23V11.4h-1.23V3.689zM27.044 3.689h1.23V11.4h-1.23V3.689zM33.444 8.117a1.88 1.88 0 00-.129-.562 1.317 1.317 0 00-.28-.464 1.219 1.219 0 00-.432-.324 1.193 1.193 0 00-.561-.13c-.216 0-.414.04-.594.12a1.314 1.314 0 00-.453.312c-.122.13-.223.285-.302.465a1.72 1.72 0 00-.119.583h2.87zm-2.87.81c0 .216.03.425.087.626.065.202.158.378.28.53.123.15.277.273.464.367.187.086.41.13.67.13.359 0 .647-.076.862-.228.223-.158.389-.392.497-.702h1.165a2.325 2.325 0 01-.334.81c-.159.238-.35.44-.572.605a2.435 2.435 0 01-.756.357c-.273.086-.56.13-.863.13-.438 0-.827-.073-1.165-.217a2.462 2.462 0 01-.863-.605 2.676 2.676 0 01-.529-.928 3.884 3.884 0 01-.172-1.188c0-.396.06-.77.183-1.124.13-.36.31-.673.54-.94.237-.273.52-.489.852-.647.33-.159.705-.238 1.122-.238.439 0 .83.094 1.176.281.352.18.644.421.874.724.23.302.395.651.496 1.047.108.39.137.792.087 1.21h-4.1zM35.61 5.816h1.165v.821l.021.022c.187-.31.432-.55.734-.724.302-.18.637-.27 1.003-.27.612 0 1.094.159 1.446.475.353.317.529.792.529 1.426V11.4h-1.23V7.89c-.014-.44-.108-.756-.28-.95-.173-.202-.443-.303-.81-.303-.208 0-.395.04-.56.12a1.134 1.134 0 00-.422.312c-.115.13-.205.285-.27.465-.064.18-.096.37-.096.572V11.4h-1.23V5.816zM41.244 5.816h.928V4.142h1.23v1.674h1.111v.918h-1.11v2.981c0 .13.003.241.01.335.014.093.04.173.075.237a.425.425 0 00.184.152c.079.028.187.043.324.043h.258a1.62 1.62 0 00.26-.043v.95l-.4.043c-.13.015-.262.022-.399.022-.324 0-.586-.029-.788-.087a1.164 1.164 0 01-.464-.27 1.038 1.038 0 01-.226-.453 3.75 3.75 0 01-.065-.616V6.734h-.928v-.918z" fill="#fff"/><path fill-rule="evenodd" clip-rule="evenodd" d="M234.448 25.625a4.068 4.068 0 01-4.066 4.07h-77.134a4.068 4.068 0 01-4.066-4.07V4.373c0-2.247 1.82-4.07 4.066-4.07h77.134a4.068 4.068 0 014.066 4.07v21.252z" fill="#0E7C98"/><path d="M230.382 30h-77.134a4.377 4.377 0 01-4.37-4.374V4.374A4.377 4.377 0 01153.248 0h77.134a4.376 4.376 0 014.369 4.374v21.252a4.376 4.376 0 01-4.369 4.373zM153.248.608a3.768 3.768 0 00-3.762 3.766v21.252a3.768 3.768 0 003.762 3.765h77.134a3.768 3.768 0 003.762-3.765V4.374a3.768 3.768 0 00-3.762-3.766h-77.134z" fill="#0E7C98"/><path fill-rule="evenodd" clip-rule="evenodd" d="M179.069.303h-25.821a4.068 4.068 0 00-4.066 4.07v21.252c0 2.248 1.82 4.07 4.066 4.07h25.821V.303z" fill="#fff"/><path fill-rule="evenodd" clip-rule="evenodd" d="M163.353 9.442l-1.27 1.75c-.637.878-.44 2.433.429 3.061l2.355 1.702c.404.292.435.581.244.89l.342.254 1.191-1.652c.737-1.021.673-2.411-.419-3.208l-2.374-1.73c-.285-.208-.314-.497-.156-.822l-.342-.245zM165.39 1.703l-1.977 2.737c-.927 1.284-.59 3.476.676 4.406l3.251 2.388c.658.484.745 1.717.265 2.349l.276.207 2.242-3.158c1.006-1.418.947-3.512-.633-4.662l-3.476-2.526c-.487-.354-.73-.955-.325-1.529l-.299-.212zM160.179 18.867h2.62l.467 1.59h4.281l.468-1.59h2.619l-.343-1.17h-9.768l-.344 1.17z" fill="#0E7C98"/><path fill-rule="evenodd" clip-rule="evenodd" d="M173.709 27.024a.206.206 0 00-.01-.064.13.13 0 00-.032-.05.225.225 0 00-.059-.044.76.76 0 00-.093-.038.9.9 0 01-.082-.033.226.226 0 01-.048-.03.103.103 0 01-.023-.032.107.107 0 01-.005-.037c0-.012.002-.025.007-.036a.075.075 0 01.023-.03.121.121 0 01.04-.021.199.199 0 01.059-.008.227.227 0 01.161.06l.048-.056a.397.397 0 00-.089-.052.317.317 0 00-.114-.018.314.314 0 00-.086.01.188.188 0 00-.066.034.144.144 0 00-.042.053.196.196 0 00-.006.132.135.135 0 00.033.048.25.25 0 00.059.041.715.715 0 00.091.038c.03.01.056.021.077.031.02.01.036.02.048.031.013.01.022.022.027.034a.11.11 0 01.008.041.097.097 0 01-.039.082.17.17 0 01-.106.03.214.214 0 01-.095-.022.335.335 0 01-.082-.056l-.05.054a.326.326 0 00.319.076.18.18 0 00.113-.096.193.193 0 00.014-.072zM174.401 27.195v-.65h-.081l-.159.389-.013.031-.013.036-.013.033a.139.139 0 00-.008.026.845.845 0 01-.021-.058l-.015-.036-.012-.032-.158-.39h-.083v.651h.072v-.51l.007.022a.417.417 0 00.021.058c.004.01.007.02.011.027l.176.42.178-.42a.648.648 0 00.012-.027l.012-.03.009-.028.008-.023v.51h.07v.001z" fill="#006697"/><path fill-rule="evenodd" clip-rule="evenodd" d="M162.431 25.391c-.112-.756-.416-.937-1.025-1.206.46-.27.743-.666.743-1.209 0-1.086-.889-1.529-1.859-1.529h-2.708v5.766h2.683c1.146 0 2.361-.502 2.166-1.822zm-3.624-2.842h1.407c.879 0 .911 1.23.055 1.23h-1.462v-1.23zm1.569 3.575h-1.569v-1.316h1.569c1.154 0 1.085 1.316 0 1.316zM167.81 25.391c-.111-.756-.416-.937-1.024-1.206.46-.27.743-.666.743-1.209 0-1.086-.889-1.529-1.859-1.529h-2.709v5.766h2.684c1.146 0 2.361-.502 2.165-1.822zm-3.624-2.842h1.408c.88 0 .911 1.23.055 1.23h-1.463v-1.23zm1.57 3.575h-1.569v-1.316h1.569c1.154 0 1.084 1.316 0 1.316zM173.189 25.391c-.112-.756-.416-.937-1.025-1.206.46-.27.743-.666.743-1.209 0-1.086-.889-1.529-1.858-1.529h-2.71v5.766h2.684c1.146 0 2.361-.502 2.166-1.822zm-3.625-2.842h1.408c.88 0 .911 1.23.056 1.23h-1.464v-1.23zm1.57 3.575h-1.57v-1.316h1.57c1.155 0 1.084 1.316 0 1.316z" fill="#0E7C98"/><path fill-rule="evenodd" clip-rule="evenodd" d="M192.428 11.617c-.327-.377-.843-.723-1.329-.856a2.667 2.667 0 00-.705-.087c-.365 0-.697.067-.999.2-.301.133-.56.318-.777.557a2.566 2.566 0 00-.507.858 3.19 3.19 0 00-.183 1.103c0 .417.059.792.175 1.126.116.333.282.618.495.854.214.236.469.418.765.546.296.128.626.192.991.192.672 0 1.835-.368 2.167-1.023l-.789-.7c-.224.357-.925.676-1.346.676a1.182 1.182 0 01-.971-.481c-.114-.15-.2-.328-.257-.531a2.354 2.354 0 01-.088-.659c0-.246.029-.47.088-.674.057-.203.142-.379.253-.527a1.166 1.166 0 01.967-.47c.417 0 1.005.276 1.281.639l.769-.743zM207.623 16.028v-1.032h-2.862v-1.273h2.303V12.7h-2.303v-.91h2.743v-1.032h-3.853v5.27h3.972zM212.735 12.169a2.15 2.15 0 00-.579-.817 2.218 2.218 0 00-.872-.456 4.104 4.104 0 00-1.098-.14h-1.736v5.272h1.657c.355 0 .701-.05 1.042-.151.341-.1.645-.258.912-.47.267-.214.481-.488.642-.822.161-.333.242-.731.242-1.193 0-.482-.07-.89-.21-1.223zM211.7 14.05a1.342 1.342 0 01-.309.508c-.137.14-.313.25-.527.328a2.215 2.215 0 01-.756.116h-.547v-3.222h.586c.586 0 1.009.134 1.268.403.259.268.388.67.388 1.208 0 .241-.034.46-.103.659zM215.129 16.028v-5.271h-1.109v5.27h1.109zM220.302 11.796v-1.04h-4.298v1.04h1.594v4.232h1.11v-4.232h1.594zM230.101 12.169a2.137 2.137 0 00-.578-.817 2.24 2.24 0 00-.872-.456 4.104 4.104 0 00-1.098-.14h-1.736v5.272h1.657c.354 0 .702-.05 1.043-.151.34-.1.644-.258.911-.47.266-.214.481-.488.642-.822.161-.333.242-.731.242-1.193 0-.482-.071-.89-.211-1.223zm-1.034 1.882a1.352 1.352 0 01-.308.508c-.138.14-.314.25-.528.328a2.213 2.213 0 01-.757.116h-.547v-3.222h.587c.586 0 1.009.134 1.269.403.258.268.388.67.388 1.208 0 .241-.035.46-.104.659zM224.985 16.028v-1.032h-2.861v-1.273h2.302V12.7h-2.302v-.91h2.742v-1.032h-3.852v5.27h3.971zM215.699 22.833V21.8h-2.861V20.53h2.303v-1.024h-2.303v-.911h2.742v-1.032h-3.852v5.27h3.971zM197.553 11.617c-.328-.377-.843-.723-1.329-.856a2.68 2.68 0 00-.706-.087c-.364 0-.697.067-.999.2-.301.133-.56.318-.776.557a2.55 2.55 0 00-.507.858 3.167 3.167 0 00-.183 1.103c0 .417.058.792.174 1.126.116.333.282.618.496.854.214.236.469.418.765.546.296.128.626.192.991.192.671 0 1.835-.368 2.166-1.023l-.789-.7c-.224.357-.925.676-1.346.676a1.175 1.175 0 01-.971-.481 1.612 1.612 0 01-.257-.531 2.391 2.391 0 01-.087-.659c0-.246.029-.47.087-.674.058-.203.143-.379.254-.527a1.157 1.157 0 01.967-.47c.416 0 1.005.276 1.28.639l.77-.743zM192.8 20.409a1.36 1.36 0 00-.54-.43c.18-.105.32-.245.421-.42.1-.176.15-.377.15-.603 0-.452-.154-.797-.463-1.035-.309-.239-.726-.358-1.251-.358h-2.479v5.27h2.455c.289 0 .552-.036.788-.108.237-.073.439-.181.606-.324a1.44 1.44 0 00.39-.535c.093-.213.139-.458.139-.734 0-.292-.071-.532-.216-.723zm-3.104-1.875h1.375c.236 0 .406.043.509.128.103.085.154.211.154.377a.492.492 0 01-.134.357c-.09.093-.249.14-.475.14h-1.429v-1.002zm2.019 3.114c-.126.123-.321.184-.583.184h-1.436v-1.363h1.436c.515 0 .772.226.772.678 0 .21-.063.377-.189.5zM198.117 20.506v-2.944h-1.08v2.96c0 .426-.1.76-.298 1-.198.241-.47.362-.814.362-.346 0-.616-.123-.812-.37-.195-.245-.294-.581-.294-1.008v-2.944h-1.081v2.96c0 .386.053.727.159 1.023.106.296.253.546.444.75.19.203.421.357.691.462.271.106.567.159.893.159.689 0 1.227-.21 1.614-.63.385-.419.578-1.012.578-1.78zM203.086 21.237c0-.286-.054-.522-.163-.708a1.414 1.414 0 00-.421-.459 2.117 2.117 0 00-.578-.282 8.477 8.477 0 00-.645-.177c-.217-.05-.394-.096-.534-.136a1.713 1.713 0 01-.332-.128.432.432 0 01-.173-.155.425.425 0 01-.051-.214c0-.06.014-.118.039-.173a.41.41 0 01.131-.15.762.762 0 01.239-.11c.099-.027.22-.041.364-.041.247 0 .47.046.668.14.198.092.385.227.56.402l.78-.738a2.898 2.898 0 00-.861-.61 2.628 2.628 0 00-1.108-.218c-.268 0-.519.035-.753.105-.235.07-.439.172-.615.305a1.372 1.372 0 00-.563 1.133c0 .261.041.48.123.655.082.176.198.321.348.437.149.115.328.21.537.286.208.075.436.14.683.196.253.055.459.107.618.158.16.05.282.103.367.158a.462.462 0 01.173.177.484.484 0 01.047.222c0 .2-.077.346-.228.437-.152.09-.39.135-.715.135-.262 0-.51-.046-.745-.14a1.667 1.667 0 01-.636-.462l-.781.678c.206.296.494.529.865.7.37.17.782.256 1.236.256.371 0 .688-.04.954-.12.265-.081.485-.195.661-.343.174-.148.303-.325.385-.531.083-.205.124-.434.124-.685zM205.044 22.833v-5.27h-1.081v5.27h1.081zM210.547 22.833v-5.27h-1.066v2.228l.003.278c.003.11.005.224.005.34 0 .11.001.214.004.312l.004.222a3.542 3.542 0 00-.166-.275l-.213-.32-1.915-2.785h-1.035v5.27h1.066v-2.32c0-.075-.001-.167-.004-.278-.003-.11-.004-.22-.004-.331 0-.115-.002-.222-.004-.32a7.496 7.496 0 01-.004-.222c.036.07.091.162.166.275.075.112.145.22.213.32l1.985 2.876h.965zM220.115 21.237c0-.286-.054-.522-.162-.708a1.436 1.436 0 00-.421-.459 2.11 2.11 0 00-.579-.282 8.477 8.477 0 00-.645-.177 10.91 10.91 0 01-.533-.136 1.688 1.688 0 01-.332-.128.425.425 0 01-.173-.155.415.415 0 01-.051-.214.4.4 0 01.039-.173.401.401 0 01.131-.15.752.752 0 01.239-.11c.098-.027.218-.041.363-.041.247 0 .47.046.668.14.198.092.385.227.56.402l.78-.738a2.91 2.91 0 00-.861-.61 2.63 2.63 0 00-1.109-.218c-.267 0-.518.035-.753.105-.233.07-.439.172-.613.305a1.44 1.44 0 00-.413.486c-.101.19-.152.406-.152.647 0 .261.042.48.125.655.081.176.198.321.347.437.15.115.328.21.537.286.208.075.436.14.683.196.253.055.459.107.618.158.159.05.281.103.367.158a.462.462 0 01.173.177.497.497 0 01.046.222c0 .2-.075.346-.227.437-.152.09-.39.135-.714.135-.263 0-.511-.046-.745-.14a1.665 1.665 0 01-.638-.462l-.78.678c.206.296.494.529.866.7.37.17.782.256 1.235.256.37 0 .689-.04.954-.12.265-.081.485-.195.66-.343.175-.148.304-.325.386-.531.083-.205.124-.434.124-.685zM224.761 21.237c0-.286-.055-.522-.163-.708a1.436 1.436 0 00-.421-.459 2.117 2.117 0 00-.578-.282 8.74 8.74 0 00-.645-.177 10.42 10.42 0 01-.534-.136 1.688 1.688 0 01-.332-.128.443.443 0 01-.174-.155.425.425 0 01-.05-.214.4.4 0 01.039-.173.41.41 0 01.131-.15.762.762 0 01.239-.11c.098-.027.219-.041.364-.041.247 0 .469.046.668.14.198.092.384.227.56.402l.78-.738a2.91 2.91 0 00-.861-.61 2.63 2.63 0 00-1.109-.218c-.268 0-.519.035-.753.105-.234.07-.439.172-.614.305a1.474 1.474 0 00-.413.486c-.101.19-.151.406-.151.647 0 .261.041.48.124.655.082.176.198.321.347.437.15.115.328.21.537.286.209.075.437.14.684.196.252.055.458.107.617.158.16.05.283.103.367.158a.473.473 0 01.174.177.497.497 0 01.047.222c0 .2-.077.346-.228.437-.152.09-.39.135-.715.135-.262 0-.511-.046-.745-.14a1.67 1.67 0 01-.637-.462l-.78.678c.206.296.494.529.865.7.371.17.782.256 1.236.256.371 0 .688-.04.953-.12.266-.081.486-.195.661-.343.175-.148.304-.325.386-.531.083-.205.124-.434.124-.685zM185.635 10.757h-1.079l-2.124 5.27h1.189l.436-1.174h2.029l.436 1.175h1.221l-2.108-5.271zm-1.198 3.095l.357-.957c.058-.155.112-.306.162-.451.051-.146.089-.269.116-.37.026.101.064.224.114.37.051.145.105.296.163.451l.357.957h-1.269zM201.728 14.025c.353-.131.748-.368.925-.622.177-.253.266-.578.266-.975 0-.28-.051-.526-.151-.734a1.506 1.506 0 00-.412-.523 1.736 1.736 0 00-.61-.313 2.632 2.632 0 00-.738-.101h-2.585v5.27h1.11V14.13l.989.045 1.16 1.853h1.277l-1.231-2.003zm-.744-.889h-1.45v-1.355h1.45c.249 0 .443.051.583.154.14.103.21.275.21.516 0 .457-.264.685-.793.685z" fill="#fff"/><path d="M248.317 26.147c6.15 0 11.137-4.99 11.137-11.147 0-6.156-4.987-11.147-11.137-11.147-6.151 0-11.136 4.99-11.136 11.147s4.985 11.147 11.136 11.147z" fill="#0E7C98"/><path d="M247.691 18.849h-1.654l-.657-1.712h-3.01l-.621 1.712h-1.612l2.932-7.536h1.608l3.014 7.536zm-2.799-2.982l-1.037-2.796-1.017 2.796h2.054zM252.674 17.764v-1.958h-1.972v-1.352h1.972v-1.959h1.314v1.959h1.977v1.351h-1.977v1.959h-1.314z" fill="#fff"/></g><defs><clipPath id="clip0_44_2163"><path fill="#fff" d="M0 0h260v30H0z"/></clipPath></defs></svg>