<svg width="260" height="30" viewBox="0 0 260 30" fill="none" xmlns="http://www.w3.org/2000/svg">
<g clip-path="url(#clip0_44_2163)">
<path fill-rule="evenodd" clip-rule="evenodd" d="M85.4882 27.4762H86.3147V22.2419H85.4882V27.4762ZM83.9245 23.0333H84.7502V22.2429H83.9245V23.0333ZM62.6506 22.2431H62.6467V23.0335H64.2888V27.4766H65.1947V23.0335H66.8437V22.2431H62.6506ZM91.6091 22.5485V23.6859H90.9902V24.3186H91.6158V26.5528C91.6196 26.7083 91.6376 26.8484 91.663 26.9702C91.6923 27.092 91.7402 27.1923 91.8166 27.2735C91.8901 27.3547 91.9957 27.4175 92.1276 27.4581C92.2595 27.4987 92.4355 27.5209 92.6543 27.5209C92.7457 27.5209 92.8334 27.5171 92.9211 27.5056C93.005 27.4949 93.0964 27.4872 93.1871 27.4757V26.8301C93.1294 26.8446 93.0702 26.8523 93.0125 26.8553C92.9533 26.8592 92.8948 26.8592 92.8372 26.8592C92.742 26.8592 92.6723 26.8484 92.6176 26.8262C92.5622 26.804 92.5225 26.771 92.497 26.7266C92.4715 26.6822 92.4528 26.627 92.4453 26.5643C92.4385 26.4968 92.4355 26.4233 92.4355 26.3352V24.3109H93.1803V23.6859H92.4355V22.5485H91.6091ZM77.4207 22.5485V23.6859H76.8033V24.3186H77.4282V26.5528C77.4312 26.7083 77.4507 26.8484 77.4754 26.9702C77.5046 27.092 77.5519 27.1923 77.6298 27.2735C77.7025 27.3547 77.8088 27.4175 77.94 27.4581C78.0711 27.4987 78.2472 27.5209 78.466 27.5209C78.5574 27.5209 78.6451 27.5171 78.7327 27.5056C78.8174 27.4949 78.9088 27.4872 79.0002 27.4757V26.8301C78.9418 26.8446 78.8833 26.8523 78.8249 26.8553C78.7664 26.8592 78.7072 26.8592 78.6495 26.8592C78.5536 26.8592 78.484 26.8484 78.43 26.8262C78.3746 26.804 78.3341 26.771 78.3086 26.7266C78.2839 26.6822 78.2644 26.627 78.2577 26.5643C78.2502 26.4968 78.2472 26.4233 78.2472 26.3352V24.3109H78.9927V23.6859H78.2472V22.5485H77.4207ZM88.0478 23.7344C87.8147 23.8347 87.6124 23.9711 87.4521 24.148C87.291 24.3257 87.1674 24.5363 87.0834 24.7806C86.9988 25.0234 86.9553 25.2899 86.9553 25.5779C86.9553 25.8698 86.9988 26.1394 87.0834 26.3829C87.1674 26.6273 87.291 26.8371 87.4521 27.0148C87.6162 27.1879 87.8147 27.3288 88.0478 27.4284C88.2823 27.5279 88.549 27.5801 88.8487 27.5801C89.1485 27.5801 89.4152 27.5279 89.649 27.4284C89.8827 27.3288 90.0843 27.1925 90.2454 27.0148C90.4057 26.8371 90.5301 26.6273 90.6148 26.3829C90.6987 26.1394 90.7422 25.8698 90.7422 25.5779C90.7422 25.2899 90.6987 25.0234 90.6148 24.7806C90.5301 24.5363 90.4057 24.3257 90.2454 24.148C90.0813 23.9749 89.8827 23.8347 89.649 23.7344C89.4152 23.6348 89.1485 23.5827 88.8487 23.5827C88.549 23.5827 88.2823 23.6348 88.0478 23.7344ZM88.3692 26.8007C88.2343 26.7233 88.1249 26.6199 88.0365 26.4944C87.9489 26.3687 87.8829 26.2247 87.8425 26.0654C87.8027 25.9069 87.781 25.7445 87.781 25.5783C87.781 25.4159 87.8027 25.2566 87.8425 25.0943C87.8874 24.9319 87.9489 24.7917 88.0365 24.6653C88.1249 24.5443 88.2343 24.4409 88.3692 24.3628C88.5048 24.2854 88.6652 24.2448 88.848 24.2448C89.0308 24.2448 89.1927 24.2854 89.3275 24.3628C89.4624 24.4409 89.5718 24.5397 89.6602 24.6653C89.7479 24.7917 89.8131 24.9319 89.8543 25.0943C89.894 25.2566 89.9165 25.4159 89.9165 25.5783C89.9165 25.7445 89.894 25.9069 89.8543 26.0654C89.8101 26.2247 89.7479 26.3687 89.6602 26.4944C89.5718 26.6199 89.4624 26.7233 89.3275 26.8007C89.1927 26.8781 89.0308 26.9186 88.848 26.9186C88.6652 26.9186 88.5048 26.8826 88.3692 26.8007ZM80.8599 23.7267C80.6516 23.8232 80.4905 23.9787 80.3736 24.2H80.3587V23.6861H79.5764V28.7994H80.4029V26.9857H80.4178C80.4838 27.0845 80.5602 27.1733 80.6546 27.2515C80.7468 27.3288 80.8532 27.3917 80.9626 27.4399C81.072 27.4874 81.1889 27.5241 81.3095 27.5463C81.4309 27.5686 81.5508 27.5801 81.6721 27.5801C81.9486 27.5801 82.1876 27.5241 82.3922 27.4139C82.596 27.3035 82.7646 27.1588 82.8965 26.9742C83.0283 26.7896 83.1265 26.579 83.1924 26.3385C83.2584 26.1026 83.2906 25.8552 83.2906 25.6001C83.2906 25.3229 83.2546 25.061 83.1804 24.8166C83.1078 24.5731 83.0014 24.3593 82.856 24.1748C82.7099 23.9894 82.5263 23.8454 82.3075 23.742C82.088 23.6348 81.8325 23.5827 81.5365 23.5827C81.2915 23.5827 81.0682 23.631 80.8599 23.7267ZM80.9835 26.8152C80.8562 26.7494 80.7468 26.6567 80.6546 26.5388C80.5602 26.4208 80.4943 26.2799 80.4463 26.1175C80.3991 25.9551 80.3774 25.7774 80.3774 25.586C80.3774 25.1792 80.465 24.8545 80.6404 24.6101C80.8165 24.3666 81.0795 24.2448 81.4264 24.2448C81.595 24.2448 81.7441 24.2854 81.8759 24.3597C82.0041 24.4332 82.1135 24.5328 82.2019 24.6584C82.2888 24.7841 82.3547 24.925 82.3989 25.0865C82.4431 25.2497 82.4641 25.4159 82.4641 25.586C82.4641 25.7522 82.4461 25.9145 82.4139 26.0731C82.3772 26.2324 82.3143 26.3726 82.2304 26.4974C82.1472 26.6199 82.0408 26.7233 81.9089 26.8007C81.777 26.8781 81.6204 26.9186 81.4309 26.9186C81.2615 26.9186 81.1124 26.8857 80.9835 26.8152ZM74.357 23.6348C74.171 23.6716 74.0027 23.7313 73.8497 23.8163C73.6989 23.9006 73.5712 24.0116 73.4724 24.1526C73.3737 24.292 73.3225 24.4628 73.3225 24.6695C73.3225 24.861 73.3554 25.0204 73.425 25.149C73.4908 25.2785 73.5819 25.3857 73.6958 25.4669C73.8091 25.5527 73.9369 25.6185 74.0792 25.6668C74.2215 25.7143 74.3723 25.7594 74.5253 25.7924C74.6753 25.8254 74.8214 25.8583 74.9676 25.8881C75.1137 25.918 75.2418 25.9547 75.3557 25.9954C75.4681 26.0398 75.5595 26.0911 75.6329 26.1616C75.7056 26.2282 75.7468 26.3171 75.7506 26.4235C75.7536 26.5315 75.7281 26.6158 75.6742 26.6824C75.615 26.7491 75.5453 26.8004 75.4576 26.834C75.3729 26.867 75.2785 26.893 75.1796 26.9045C75.0815 26.9153 74.9938 26.9229 74.9171 26.9229C74.6936 26.9229 74.5039 26.8708 74.3425 26.7743C74.1856 26.6755 74.0938 26.5047 74.0685 26.2611V26.2688H73.2352C73.2421 26.494 73.2858 26.69 73.3699 26.8524C73.454 27.0148 73.5712 27.1519 73.7173 27.263C73.8634 27.3694 74.0395 27.4506 74.2406 27.5057C74.4419 27.5617 74.6608 27.587 74.898 27.587C75.092 27.587 75.2898 27.5655 75.4868 27.521C75.6846 27.4759 75.8675 27.4024 76.0271 27.3066C76.1889 27.2109 76.3208 27.0815 76.4227 26.926C76.5246 26.7674 76.577 26.579 76.577 26.3531C76.577 26.1685 76.5403 26.0099 76.4706 25.8843C76.401 25.7594 76.3088 25.6561 76.1964 25.5703C76.0825 25.4852 75.9544 25.4194 75.8083 25.3712C75.6622 25.3229 75.5161 25.2785 75.3662 25.2455C75.2133 25.2126 75.0627 25.1789 74.9171 25.149C74.7702 25.1199 74.6424 25.0832 74.5291 25.0426C74.4151 24.9981 74.3249 24.9468 74.2552 24.884C74.1856 24.8204 74.1488 24.7393 74.1488 24.6366C74.1488 24.5508 74.1741 24.485 74.2215 24.4329C74.2728 24.3808 74.3317 24.3402 74.4006 24.3142C74.474 24.2889 74.5475 24.2705 74.6279 24.2591C74.7082 24.2483 74.7778 24.2445 74.836 24.2445C75.0185 24.2445 75.1834 24.2774 75.3257 24.3479C75.4681 24.4145 75.5565 24.5508 75.5962 24.7508H76.4594C76.4339 24.5393 76.3755 24.3593 76.2803 24.2108C76.1852 24.0637 76.0683 23.9411 75.9259 23.8493C75.7835 23.7535 75.6217 23.6861 75.4471 23.6456C75.271 23.6049 75.0845 23.5827 74.8911 23.5827C74.7227 23.5827 74.5436 23.6018 74.357 23.6348ZM68.1778 23.6578C68.057 23.7091 67.9476 23.7719 67.8488 23.8531C67.7501 23.9304 67.6659 24.0224 67.5963 24.1189C67.5267 24.2153 67.4793 24.3142 67.454 24.4175H67.4395V23.6861H66.6644H66.6605V27.4728H67.4869V25.6698C67.4869 25.46 67.5129 25.2754 67.5672 25.1123C67.6223 24.9499 67.6951 24.8166 67.7869 24.7055C67.8779 24.5991 67.9843 24.5141 68.1082 24.4582C68.233 24.403 68.3646 24.3739 68.5031 24.3739C68.5612 24.3739 68.6201 24.377 68.6829 24.3846C68.7449 24.3923 68.803 24.4 68.8619 24.4107V23.6049C68.8214 23.6018 68.7847 23.5942 68.748 23.5904C68.712 23.5873 68.6423 23.5827 68.5467 23.5827C68.4227 23.5827 68.298 23.6087 68.1778 23.6578ZM83.9245 27.4765H84.7502V23.6867H83.9245V27.4765ZM69.3659 23.6867V26.0917C69.3659 26.5903 69.4761 26.9641 69.6957 27.2115C69.9153 27.4589 70.2734 27.5807 70.7662 27.5807C70.975 27.5807 71.1794 27.5217 71.3806 27.4076C71.5819 27.2919 71.7318 27.141 71.8344 26.9488H71.8489V27.4765H72.66V23.6913H71.8344V25.8887C71.8344 26.0366 71.8191 26.1737 71.787 26.2985C71.7541 26.4241 71.702 26.5352 71.6293 26.624C71.5597 26.7167 71.4648 26.7864 71.3485 26.8423C71.2315 26.8975 71.0883 26.9235 70.9131 26.9235C70.6866 26.9235 70.5076 26.853 70.3828 26.7167C70.2543 26.5796 70.1931 26.3429 70.1931 26.0105V23.6867H69.3659Z" fill="white"/>
<path fill-rule="evenodd" clip-rule="evenodd" d="M55.5537 22.2421L51.7668 22.2383L54.8336 24.4923L53.6599 28.1304L56.7275 25.8802L59.7913 28.1304L58.6213 24.4923L61.6851 22.2421H57.8975L56.7275 18.5994L55.5537 22.2421Z" fill="#00B67A"/>
<path fill-rule="evenodd" clip-rule="evenodd" d="M56.728 25.8808L58.8851 25.3164L58.6218 24.4922L56.728 25.8808Z" fill="#005128"/>
<path d="M41.1086 24.542C41.1086 24.3164 41.1373 24.1172 41.1949 23.9444C41.2572 23.7668 41.3411 23.618 41.4466 23.498C41.5521 23.378 41.6744 23.2868 41.8135 23.2244C41.9573 23.162 42.1084 23.1308 42.2666 23.1308C42.4249 23.1308 42.5735 23.162 42.7126 23.2244C42.8565 23.2868 42.9812 23.378 43.0867 23.498C43.1921 23.618 43.2736 23.7668 43.3311 23.9444C43.3935 24.1172 43.4247 24.3164 43.4247 24.542C43.4247 24.7676 43.3935 24.9691 43.3311 25.1467C43.2736 25.3195 43.1921 25.4659 43.0867 25.5859C42.9812 25.7011 42.8565 25.7899 42.7126 25.8523C42.5735 25.9147 42.4249 25.9459 42.2666 25.9459C42.1084 25.9459 41.9573 25.9147 41.8135 25.8523C41.6744 25.7899 41.5521 25.7011 41.4466 25.5859C41.3411 25.4659 41.2572 25.3195 41.1949 25.1467C41.1373 24.9691 41.1086 24.7676 41.1086 24.542ZM40.4612 24.542C40.4612 24.8156 40.4995 25.0699 40.5763 25.3051C40.653 25.5403 40.7681 25.7467 40.9215 25.9243C41.075 26.0971 41.2644 26.2339 41.4898 26.3347C41.7152 26.4307 41.9741 26.4787 42.2666 26.4787C42.564 26.4787 42.8229 26.4307 43.0435 26.3347C43.2688 26.2339 43.4582 26.0971 43.6117 25.9243C43.7651 25.7467 43.8802 25.5403 43.9569 25.3051C44.0337 25.0699 44.072 24.8156 44.072 24.542C44.072 24.2684 44.0337 24.014 43.9569 23.7788C43.8802 23.5388 43.7651 23.3324 43.6117 23.1596C43.4582 22.982 43.2688 22.8428 43.0435 22.742C42.8229 22.6412 42.564 22.5908 42.2666 22.5908C41.9741 22.5908 41.7152 22.6412 41.4898 22.742C41.2644 22.8428 41.075 22.982 40.9215 23.1596C40.7681 23.3324 40.653 23.5388 40.5763 23.7788C40.4995 24.014 40.4612 24.2684 40.4612 24.542Z" fill="white"/>
<path d="M44.7927 22.6772V26.3995H45.4041V24.2972C45.4041 24.1292 45.4257 23.9756 45.4689 23.8364C45.5168 23.6924 45.5864 23.5676 45.6775 23.462C45.7686 23.3564 45.8813 23.2748 46.0155 23.2172C46.1546 23.1596 46.3177 23.1308 46.5047 23.1308C46.7397 23.1308 46.9243 23.198 47.0585 23.3324C47.1928 23.4668 47.26 23.6492 47.26 23.8796V26.3995H47.8714V23.9516C47.8714 23.75 47.8498 23.5676 47.8066 23.4044C47.7683 23.2364 47.6987 23.0924 47.598 22.9724C47.4973 22.8524 47.3655 22.7588 47.2024 22.6916C47.0394 22.6244 46.8356 22.5908 46.591 22.5908C46.0395 22.5908 45.6367 22.8164 45.3826 23.2676H45.3682V22.6772H44.7927Z" fill="white"/>
<path fill-rule="evenodd" clip-rule="evenodd" d="M119.189 13.7998H133.859V0H119.189V13.7998ZM102.979 13.7998H117.647V0H102.979V13.7998ZM86.7568 13.7998H101.426V0H86.7568V13.7998ZM70.5373 13.7998H85.2066V0H70.5373V13.7998ZM54.3264 13.7998H68.9953V0H54.3264V13.7998Z" fill="#00B67A"/>
<path fill-rule="evenodd" clip-rule="evenodd" d="M60.4755 5.3663H56.5479L59.7255 7.67665L58.5117 11.4153L66.8318 5.3663H62.9031L61.6904 1.62769L60.4755 5.3663Z" fill="white"/>
<path fill-rule="evenodd" clip-rule="evenodd" d="M61.6897 9.10498L64.8673 11.4164L63.9613 8.62671L61.6897 9.10498Z" fill="white"/>
<path fill-rule="evenodd" clip-rule="evenodd" d="M125.339 5.3663H121.411L124.589 7.67665L123.375 11.4153L131.695 5.3663H127.767L126.553 1.62769L125.339 5.3663Z" fill="white"/>
<path fill-rule="evenodd" clip-rule="evenodd" d="M126.552 9.10498L129.73 11.4164L128.824 8.62671L126.552 9.10498Z" fill="white"/>
<path fill-rule="evenodd" clip-rule="evenodd" d="M109.129 5.3663H105.201L108.378 7.67665L107.165 11.4153L115.485 5.3663H111.557L110.343 1.62769L109.129 5.3663Z" fill="white"/>
<path fill-rule="evenodd" clip-rule="evenodd" d="M110.343 9.10498L113.52 11.4164L112.614 8.62671L110.343 9.10498Z" fill="white"/>
<path fill-rule="evenodd" clip-rule="evenodd" d="M92.9084 5.3663H88.9807L92.1584 7.67665L90.9446 11.4153L99.2646 5.3663H95.3361L94.1223 1.62769L92.9084 5.3663Z" fill="white"/>
<path fill-rule="evenodd" clip-rule="evenodd" d="M94.1216 9.10498L97.2993 11.4164L96.3934 8.62671L94.1216 9.10498Z" fill="white"/>
<path fill-rule="evenodd" clip-rule="evenodd" d="M76.6596 5.40691H72.6729L75.8976 7.72587L74.6657 11.4785L83.1109 5.40691H79.124L77.8907 1.6543L76.6596 5.40691Z" fill="white"/>
<path fill-rule="evenodd" clip-rule="evenodd" d="M77.7317 9.11547L80.8944 11.4786L79.9938 8.62646L77.7317 9.11547Z" fill="white"/>
<path fill-rule="evenodd" clip-rule="evenodd" d="M119.189 13.7998H133.859V0H119.189V13.7998ZM102.979 13.7998H117.647V0H102.979V13.7998ZM86.7568 13.7998H101.426V0H86.7568V13.7998ZM70.5373 13.7998H85.2066V0H70.5373V13.7998ZM54.3264 13.7998H68.9953V0H54.3264V13.7998Z" fill="#00B67A"/>
<path fill-rule="evenodd" clip-rule="evenodd" d="M60.4755 5.3663H56.5479L59.7255 7.67665L58.5117 11.4153L66.8318 5.3663H62.9031L61.6904 1.62769L60.4755 5.3663Z" fill="white"/>
<path fill-rule="evenodd" clip-rule="evenodd" d="M61.6897 9.10498L64.8673 11.4164L63.9613 8.62671L61.6897 9.10498Z" fill="white"/>
<path fill-rule="evenodd" clip-rule="evenodd" d="M125.339 5.3663H121.411L124.589 7.67665L123.375 11.4153L131.695 5.3663H127.767L126.553 1.62769L125.339 5.3663Z" fill="white"/>
<path fill-rule="evenodd" clip-rule="evenodd" d="M126.552 9.10498L129.73 11.4164L128.824 8.62671L126.552 9.10498Z" fill="white"/>
<path fill-rule="evenodd" clip-rule="evenodd" d="M109.129 5.3663H105.201L108.378 7.67665L107.165 11.4153L115.485 5.3663H111.557L110.343 1.62769L109.129 5.3663Z" fill="white"/>
<path fill-rule="evenodd" clip-rule="evenodd" d="M110.343 9.10498L113.52 11.4164L112.614 8.62671L110.343 9.10498Z" fill="white"/>
<path fill-rule="evenodd" clip-rule="evenodd" d="M92.9084 5.3663H88.9807L92.1584 7.67665L90.9446 11.4153L99.2646 5.3663H95.3361L94.1223 1.62769L92.9084 5.3663Z" fill="white"/>
<path fill-rule="evenodd" clip-rule="evenodd" d="M94.1216 9.10498L97.2993 11.4164L96.3934 8.62671L94.1216 9.10498Z" fill="white"/>
<path fill-rule="evenodd" clip-rule="evenodd" d="M76.6596 5.40691H72.6729L75.8976 7.72587L74.6657 11.4785L83.1109 5.40691H79.124L77.8907 1.6543L76.6596 5.40691Z" fill="white"/>
<path fill-rule="evenodd" clip-rule="evenodd" d="M77.7317 9.11547L80.8944 11.4786L79.9938 8.62646L77.7317 9.11547Z" fill="white"/>
<path d="M0 3.68896H5.54578V4.85535H1.34868V6.87492H5.23289V7.97652H1.34868V10.2336H5.62131V11.4H0V3.68896Z" fill="white"/>
<path d="M8.12326 8.46239L6.19191 5.81641H7.68089L8.84609 7.53359L10.0653 5.81641H11.4896L9.59058 8.39759L11.7269 11.3999H10.2487L8.8353 9.33712L7.46507 11.3999H6.01929L8.12326 8.46239Z" fill="white"/>
<path d="M16.1842 7.68487C16.1338 7.33926 15.9936 7.08006 15.7634 6.90727C15.5404 6.72727 15.2563 6.63727 14.911 6.63727C14.7527 6.63727 14.5837 6.66607 14.4039 6.72367C14.2241 6.77407 14.0586 6.87487 13.9076 7.02606C13.7565 7.17006 13.6306 7.37526 13.5299 7.64167C13.4292 7.90087 13.3789 8.24287 13.3789 8.66767C13.3789 8.89807 13.404 9.12847 13.4544 9.35879C13.5119 9.58919 13.5983 9.79439 13.7133 9.97439C13.8356 10.1544 13.9903 10.302 14.1773 10.4172C14.3643 10.5252 14.5909 10.5792 14.857 10.5792C15.2167 10.5792 15.5116 10.4676 15.7418 10.2444C15.9792 10.0212 16.1266 9.70799 16.1842 9.30479H17.4142C17.2991 10.032 17.0222 10.59 16.5834 10.9788C16.1518 11.3604 15.5764 11.5512 14.857 11.5512C14.4183 11.5512 14.0298 11.4792 13.6918 11.3352C13.3609 11.184 13.0804 10.9824 12.8502 10.7304C12.62 10.4712 12.4438 10.1652 12.3215 9.81239C12.2065 9.45959 12.1489 9.07807 12.1489 8.66767C12.1489 8.25007 12.2065 7.85767 12.3215 7.49045C12.4366 7.12326 12.6092 6.80647 12.8394 6.54007C13.0696 6.26648 13.3537 6.05408 13.6918 5.90288C14.037 5.74448 14.4398 5.66528 14.9002 5.66528C15.2239 5.66528 15.5296 5.70848 15.8173 5.79488C16.1122 5.87408 16.3712 5.99648 16.5942 6.16208C16.8244 6.32768 17.0114 6.53647 17.1552 6.78847C17.2991 7.04046 17.3854 7.33926 17.4142 7.68487H16.1842Z" fill="white"/>
<path d="M22.2443 8.11687C22.2299 7.92247 22.1867 7.73527 22.1148 7.55527C22.0501 7.37526 21.9565 7.22046 21.8343 7.09086C21.7192 6.95406 21.5753 6.84607 21.4027 6.76687C21.2372 6.68047 21.0502 6.63727 20.8416 6.63727C20.6259 6.63727 20.4281 6.67687 20.2483 6.75607C20.0756 6.82807 19.9246 6.93246 19.7951 7.06926C19.6728 7.19886 19.5721 7.35366 19.493 7.53367C19.4211 7.71367 19.3815 7.90807 19.3743 8.11687H22.2443ZM19.3743 8.92687C19.3743 9.14287 19.4031 9.35159 19.4606 9.55319C19.5254 9.75479 19.6189 9.93119 19.7412 10.0824C19.8634 10.2336 20.0181 10.356 20.2051 10.4496C20.3921 10.536 20.6151 10.5792 20.874 10.5792C21.2336 10.5792 21.5214 10.5036 21.7372 10.3524C21.9601 10.194 22.1256 9.95999 22.2335 9.65039H23.3988C23.334 9.95279 23.2225 10.2228 23.0643 10.4604C22.906 10.698 22.7154 10.8996 22.4924 11.0652C22.2694 11.2236 22.0177 11.3424 21.7372 11.4216C21.4638 11.508 21.1761 11.5512 20.874 11.5512C20.4353 11.5512 20.0469 11.4792 19.7088 11.3352C19.3707 11.1912 19.083 10.9896 18.8456 10.7304C18.6154 10.4712 18.4392 10.1616 18.3169 9.80159C18.2018 9.44159 18.1443 9.04567 18.1443 8.61367C18.1443 8.21767 18.2054 7.84327 18.3277 7.49045C18.4572 7.13046 18.637 6.81727 18.8672 6.55087C19.1046 6.27728 19.3887 6.06128 19.7196 5.90288C20.0505 5.74448 20.4245 5.66528 20.8416 5.66528C21.2804 5.66528 21.6724 5.75888 22.0177 5.94608C22.3701 6.12608 22.6615 6.36728 22.8916 6.66967C23.1218 6.97206 23.2873 7.32126 23.388 7.71727C23.4959 8.10607 23.5246 8.50927 23.4743 8.92687H19.3743Z" fill="white"/>
<path d="M24.4417 3.68896H25.6717V11.4H24.4417V3.68896Z" fill="white"/>
<path d="M27.0442 3.68896H28.2742V11.4H27.0442V3.68896Z" fill="white"/>
<path d="M33.4445 8.11687C33.4301 7.92247 33.3869 7.73527 33.315 7.55527C33.2503 7.37526 33.1567 7.22046 33.0345 7.09086C32.9194 6.95406 32.7756 6.84607 32.6029 6.76687C32.4375 6.68047 32.2505 6.63727 32.0419 6.63727C31.8261 6.63727 31.6283 6.67687 31.4485 6.75607C31.2758 6.82807 31.1248 6.93246 30.9953 7.06926C30.873 7.19886 30.7723 7.35366 30.6932 7.53367C30.6213 7.71367 30.5817 7.90807 30.5745 8.11687H33.4445ZM30.5745 8.92687C30.5745 9.14287 30.6033 9.35159 30.6608 9.55319C30.7256 9.75479 30.8191 9.93119 30.9413 10.0824C31.0636 10.2336 31.2183 10.356 31.4053 10.4496C31.5923 10.536 31.8153 10.5792 32.0743 10.5792C32.4339 10.5792 32.7216 10.5036 32.9374 10.3524C33.1603 10.194 33.3258 9.95999 33.4337 9.65039H34.599C34.5342 9.95279 34.4227 10.2228 34.2645 10.4604C34.1062 10.698 33.9156 10.8996 33.6926 11.0652C33.4696 11.2236 33.2179 11.3424 32.9374 11.4216C32.6641 11.508 32.3764 11.5512 32.0743 11.5512C31.6355 11.5512 31.2471 11.4792 30.909 11.3352C30.5709 11.1912 30.2832 10.9896 30.0458 10.7304C29.8156 10.4712 29.6394 10.1616 29.5171 9.80159C29.402 9.44159 29.3445 9.04567 29.3445 8.61367C29.3445 8.21767 29.4056 7.84327 29.5279 7.49045C29.6574 7.13046 29.8372 6.81727 30.0674 6.55087C30.3048 6.27728 30.5889 6.06128 30.9198 5.90288C31.2507 5.74448 31.6247 5.66528 32.0419 5.66528C32.4807 5.66528 32.8727 5.75888 33.2179 5.94608C33.5703 6.12608 33.8617 6.36728 34.0918 6.66967C34.322 6.97206 34.4875 7.32126 34.5882 7.71727C34.6961 8.10607 34.7248 8.50927 34.6745 8.92687H30.5745Z" fill="white"/>
<path d="M35.6096 5.81648H36.7748V6.63727L36.7964 6.65887C36.9834 6.34928 37.228 6.10808 37.5301 5.93528C37.8322 5.75528 38.1667 5.66528 38.5335 5.66528C39.1449 5.66528 39.6269 5.82368 39.9793 6.14048C40.3318 6.45727 40.508 6.93246 40.508 7.56607V11.4H39.278V7.89007C39.2636 7.45085 39.1701 7.13406 38.9975 6.93967C38.8249 6.73807 38.5551 6.63727 38.1883 6.63727C37.9797 6.63727 37.7926 6.67687 37.6272 6.75607C37.4618 6.82807 37.3215 6.93246 37.2064 7.06926C37.0913 7.19886 37.0014 7.35366 36.9367 7.53367C36.8719 7.71367 36.8396 7.90447 36.8396 8.10607V11.4H35.6096V5.81648Z" fill="white"/>
<path d="M41.2441 5.81631H42.1721V4.14233H43.4021V5.81631H44.5133V6.7343H43.4021V9.71502C43.4021 9.84462 43.4057 9.95622 43.4129 10.0498C43.4272 10.1434 43.4524 10.2226 43.4884 10.2874C43.5315 10.3522 43.5927 10.4026 43.6718 10.4386C43.7509 10.4674 43.8588 10.4818 43.9955 10.4818C44.0817 10.4818 44.1681 10.4818 44.2544 10.4818C44.3407 10.4746 44.427 10.4602 44.5133 10.4386V11.389C44.3767 11.4034 44.2436 11.4178 44.1142 11.4322C43.9847 11.4466 43.8516 11.4538 43.715 11.4538C43.3913 11.4538 43.1287 11.425 42.9273 11.3674C42.7331 11.3026 42.5785 11.2126 42.4634 11.0974C42.3555 10.975 42.2799 10.8238 42.2368 10.6438C42.2008 10.4638 42.1792 10.2586 42.1721 10.0282V6.7343H41.2441V5.81631Z" fill="white"/>
<path fill-rule="evenodd" clip-rule="evenodd" d="M234.448 25.6253C234.448 27.8729 232.627 29.695 230.382 29.695H153.248C151.002 29.695 149.182 27.8729 149.182 25.6253V4.37318C149.182 2.12551 151.002 0.303467 153.248 0.303467H230.382C232.627 0.303467 234.448 2.12551 234.448 4.37318V25.6253Z" fill="#0E7C98"/>
<path d="M230.382 29.9995H153.248C150.838 29.9995 148.878 28.0375 148.878 25.6259V4.37373C148.878 1.9621 150.838 0 153.248 0H230.382C232.791 0 234.751 1.9621 234.751 4.37373V25.6256C234.751 28.0375 232.791 29.9995 230.382 29.9995ZM153.248 0.608026C151.173 0.608026 149.486 2.29732 149.486 4.37373V25.6256C149.486 27.7021 151.173 29.3914 153.248 29.3914H230.382C232.456 29.3914 234.144 27.7021 234.144 25.6256V4.37373C234.144 2.29732 232.456 0.608026 230.382 0.608026H153.248Z" fill="#0E7C98"/>
<path fill-rule="evenodd" clip-rule="evenodd" d="M179.069 0.303467H153.248C151.002 0.303467 149.182 2.12551 149.182 4.37318V25.6251C149.182 27.8727 151.002 29.6948 153.248 29.6948H179.069V0.303467Z" fill="white"/>
<path fill-rule="evenodd" clip-rule="evenodd" d="M163.353 9.44214L162.083 11.1926C161.446 12.07 161.643 13.6251 162.512 14.2534L164.867 15.9548C165.271 16.2467 165.302 16.5362 165.111 16.8448L165.453 17.0992L166.644 15.4466C167.381 14.4255 167.317 13.0355 166.225 12.2392L163.851 10.5084C163.566 10.3013 163.537 10.0116 163.695 9.68716L163.353 9.44214Z" fill="#0E7C98"/>
<path fill-rule="evenodd" clip-rule="evenodd" d="M165.39 1.70337L163.413 4.44029C162.486 5.72383 162.823 7.91554 164.089 8.84622L167.34 11.234C167.998 11.718 168.085 12.9506 167.605 13.5828L167.881 13.7895L170.123 10.6322C171.129 9.21447 171.07 7.11966 169.49 5.97049L166.014 3.44374C165.527 3.09007 165.284 2.48893 165.689 1.91496L165.39 1.70337Z" fill="#0E7C98"/>
<path fill-rule="evenodd" clip-rule="evenodd" d="M160.179 18.8667H162.799L163.266 20.4567C164.693 20.4567 166.12 20.4567 167.547 20.4567L168.015 18.8667H170.634L170.291 17.6973C167.035 17.6973 163.778 17.6973 160.523 17.6973L160.179 18.8667Z" fill="#0E7C98"/>
<path fill-rule="evenodd" clip-rule="evenodd" d="M173.709 27.0243C173.709 27.0002 173.705 26.9787 173.699 26.9603C173.693 26.9416 173.682 26.9246 173.667 26.9092C173.652 26.8938 173.633 26.8794 173.608 26.8665C173.582 26.8535 173.552 26.8403 173.515 26.8275C173.481 26.8155 173.454 26.8048 173.433 26.7949C173.412 26.7849 173.397 26.7748 173.385 26.7649C173.374 26.7546 173.367 26.7438 173.362 26.7333C173.358 26.7223 173.357 26.7102 173.357 26.6964C173.357 26.6836 173.359 26.6712 173.364 26.6597C173.369 26.6481 173.376 26.6382 173.387 26.6295C173.397 26.621 173.411 26.6139 173.427 26.6086C173.444 26.6034 173.463 26.6007 173.486 26.6007C173.52 26.6007 173.549 26.6056 173.574 26.616C173.598 26.6262 173.623 26.6411 173.647 26.6611L173.695 26.6046C173.666 26.5829 173.637 26.5659 173.606 26.5533C173.574 26.541 173.536 26.5347 173.492 26.5347C173.46 26.5347 173.432 26.5385 173.406 26.5458C173.38 26.5533 173.358 26.5644 173.34 26.5788C173.322 26.5935 173.307 26.6111 173.298 26.6316C173.287 26.652 173.283 26.6751 173.283 26.7012C173.283 26.7248 173.286 26.7456 173.292 26.7635C173.299 26.7815 173.31 26.7979 173.325 26.8123C173.34 26.8269 173.36 26.8405 173.384 26.853C173.409 26.8659 173.439 26.8784 173.475 26.891C173.505 26.9015 173.531 26.9121 173.552 26.922C173.572 26.9323 173.588 26.9428 173.6 26.9532C173.613 26.9637 173.622 26.9751 173.627 26.9874C173.632 27 173.635 27.0136 173.635 27.0284C173.635 27.063 173.622 27.0904 173.596 27.1101C173.57 27.1299 173.535 27.1398 173.49 27.1398C173.456 27.1398 173.424 27.1326 173.395 27.1184C173.366 27.1042 173.338 27.0853 173.313 27.0618L173.263 27.1158C173.29 27.1419 173.322 27.1634 173.361 27.1804C173.4 27.1974 173.442 27.2059 173.488 27.2059C173.522 27.2059 173.554 27.2013 173.582 27.192C173.609 27.1828 173.632 27.1701 173.651 27.1539C173.67 27.1376 173.684 27.1184 173.695 27.0963C173.704 27.0736 173.709 27.0498 173.709 27.0243Z" fill="#006697"/>
<path fill-rule="evenodd" clip-rule="evenodd" d="M174.401 27.195V26.5444H174.32L174.161 26.934C174.157 26.9431 174.153 26.9538 174.148 26.9654C174.144 26.9773 174.139 26.9889 174.135 27.0008C174.13 27.0126 174.126 27.0238 174.122 27.0343C174.118 27.0448 174.115 27.0535 174.114 27.0602C174.111 27.0535 174.108 27.0451 174.105 27.0347C174.101 27.0244 174.097 27.0136 174.093 27.0019C174.088 26.9899 174.083 26.9783 174.078 26.9664C174.074 26.9545 174.069 26.9439 174.066 26.934L173.908 26.5444H173.825V27.195H173.897V26.7544V26.6847C173.899 26.6908 173.902 26.6985 173.904 26.7073C173.907 26.7165 173.91 26.7256 173.914 26.7353C173.917 26.7448 173.921 26.755 173.925 26.7649C173.929 26.7753 173.932 26.7844 173.936 26.7925L174.112 27.2116L174.29 26.7925C174.294 26.7838 174.298 26.7745 174.302 26.7646C174.305 26.7546 174.31 26.7447 174.314 26.7352C174.317 26.7254 174.32 26.7163 174.323 26.7072C174.326 26.6983 174.329 26.6905 174.331 26.6845V26.7542V27.1948H174.401V27.195Z" fill="#006697"/>
<path fill-rule="evenodd" clip-rule="evenodd" d="M162.431 25.3911C162.319 24.6351 162.015 24.4539 161.406 24.1854C161.866 23.9158 162.149 23.5194 162.149 22.9761C162.149 21.8899 161.26 21.4473 160.29 21.4473H157.582V27.2132H160.265C161.411 27.2132 162.626 26.7115 162.431 25.3911ZM158.807 22.5494H160.214C161.093 22.5494 161.125 23.7792 160.269 23.7792H158.807V22.5494ZM160.376 26.1236H158.807V24.8082H160.376C161.53 24.8082 161.461 26.1236 160.376 26.1236Z" fill="#0E7C98"/>
<path fill-rule="evenodd" clip-rule="evenodd" d="M167.81 25.3911C167.699 24.6351 167.394 24.4539 166.786 24.1854C167.246 23.9158 167.529 23.5194 167.529 22.9761C167.529 21.8899 166.64 21.4473 165.67 21.4473H162.961V27.2132H165.645C166.791 27.2132 168.006 26.7115 167.81 25.3911ZM164.186 22.5494H165.594C166.474 22.5494 166.505 23.7792 165.649 23.7792H164.186V22.5494ZM165.756 26.1236H164.187V24.8082H165.756C166.91 24.8082 166.84 26.1236 165.756 26.1236Z" fill="#0E7C98"/>
<path fill-rule="evenodd" clip-rule="evenodd" d="M173.189 25.3911C173.077 24.6351 172.773 24.4539 172.164 24.1854C172.624 23.9158 172.907 23.5194 172.907 22.9761C172.907 21.8899 172.018 21.4473 171.049 21.4473H168.339V27.2132H171.023C172.169 27.2132 173.384 26.7115 173.189 25.3911ZM169.564 22.5494H170.972C171.852 22.5494 171.883 23.7792 171.028 23.7792H169.564V22.5494ZM171.134 26.1236H169.564V24.8082H171.134C172.289 24.8082 172.218 26.1236 171.134 26.1236Z" fill="#0E7C98"/>
<path fill-rule="evenodd" clip-rule="evenodd" d="M192.428 11.6171C192.101 11.2402 191.585 10.8936 191.099 10.7609C190.888 10.7031 190.653 10.6743 190.394 10.6743C190.029 10.6743 189.697 10.7408 189.395 10.8736C189.094 11.0067 188.835 11.1923 188.618 11.4309C188.402 11.6693 188.232 11.9555 188.111 12.2892C187.989 12.6228 187.928 12.9905 187.928 13.392C187.928 13.8087 187.987 14.1839 188.103 14.5177C188.219 14.8514 188.385 15.1364 188.598 15.3725C188.812 15.6083 189.067 15.7904 189.363 15.9183C189.659 16.0463 189.989 16.1103 190.354 16.1103C191.026 16.1103 192.189 15.7424 192.521 15.0869L191.732 14.3867C191.508 14.7445 190.807 15.0635 190.386 15.0635C190.18 15.0635 189.995 15.0211 189.831 14.9356C189.667 14.85 189.529 14.7323 189.415 14.5817C189.301 14.4311 189.215 14.2542 189.158 14.0509C189.099 13.8478 189.07 13.6281 189.07 13.392C189.07 13.1462 189.099 12.9216 189.158 12.7183C189.215 12.5148 189.3 12.3393 189.411 12.191C189.522 12.0432 189.659 11.9275 189.823 11.8448C189.987 11.7619 190.172 11.7206 190.378 11.7206C190.795 11.7206 191.383 11.9968 191.659 12.3596L192.428 11.6171Z" fill="white"/>
<path fill-rule="evenodd" clip-rule="evenodd" d="M207.623 16.0276V14.9958H204.761V13.7234H207.064V12.6995H204.761V11.7882H207.504V10.7568H203.651V16.0276H207.623Z" fill="white"/>
<path fill-rule="evenodd" clip-rule="evenodd" d="M212.735 12.1686C212.595 11.8349 212.402 11.5626 212.156 11.3517C211.911 11.1409 211.621 10.9891 211.284 10.8963C210.949 10.8034 210.582 10.7568 210.186 10.7568H208.45V16.0276H210.107C210.462 16.0276 210.808 15.9771 211.149 15.877C211.49 15.7765 211.794 15.6194 212.061 15.4062C212.328 15.193 212.542 14.9193 212.703 14.5854C212.864 14.2518 212.945 13.8539 212.945 13.392C212.945 12.9102 212.875 12.5027 212.735 12.1686ZM211.7 14.0509C211.632 14.2493 211.528 14.4183 211.391 14.559C211.254 14.6994 211.078 14.8087 210.864 14.8866C210.65 14.9643 210.398 15.0033 210.108 15.0033H209.561V11.781H210.147C210.733 11.781 211.156 11.9151 211.415 12.1836C211.674 12.452 211.803 12.8549 211.803 13.392C211.803 13.6332 211.769 13.8527 211.7 14.0509Z" fill="white"/>
<path fill-rule="evenodd" clip-rule="evenodd" d="M215.129 16.0276V10.7568H214.02V16.0276H215.129Z" fill="white"/>
<path fill-rule="evenodd" clip-rule="evenodd" d="M220.302 11.796V10.7568H216.004V11.796H217.598V16.0276H218.708V11.796H220.302Z" fill="white"/>
<path fill-rule="evenodd" clip-rule="evenodd" d="M230.101 12.1686C229.962 11.8349 229.769 11.5626 229.523 11.3517C229.277 11.1409 228.986 10.9891 228.651 10.8963C228.316 10.8034 227.949 10.7568 227.553 10.7568H225.817V16.0276H227.474C227.828 16.0276 228.176 15.9771 228.517 15.877C228.857 15.7765 229.161 15.6194 229.428 15.4062C229.694 15.193 229.909 14.9193 230.07 14.5854C230.231 14.2518 230.312 13.8539 230.312 13.392C230.312 12.9102 230.241 12.5027 230.101 12.1686ZM229.067 14.0509C228.998 14.2493 228.896 14.4183 228.759 14.559C228.621 14.6994 228.445 14.8087 228.231 14.8866C228.018 14.9643 227.765 15.0033 227.474 15.0033H226.927V11.781H227.514C228.1 11.781 228.523 11.9151 228.783 12.1836C229.041 12.452 229.171 12.8549 229.171 13.392C229.171 13.6332 229.136 13.8527 229.067 14.0509Z" fill="white"/>
<path fill-rule="evenodd" clip-rule="evenodd" d="M224.985 16.0276V14.9958H222.124V13.7234H224.426V12.6995H222.124V11.7882H224.866V10.7568H221.014V16.0276H224.985Z" fill="white"/>
<path fill-rule="evenodd" clip-rule="evenodd" d="M215.699 22.8327V21.8012H212.838V20.5286H215.141V19.5045H212.838V18.5937H215.58V17.5623H211.728V22.8327H215.699Z" fill="white"/>
<path fill-rule="evenodd" clip-rule="evenodd" d="M197.553 11.6171C197.225 11.2402 196.71 10.8936 196.224 10.7609C196.012 10.7031 195.777 10.6743 195.518 10.6743C195.154 10.6743 194.821 10.7408 194.519 10.8736C194.218 11.0067 193.959 11.1923 193.743 11.4309C193.526 11.6693 193.357 11.9555 193.236 12.2892C193.113 12.6228 193.053 12.9905 193.053 13.392C193.053 13.8087 193.111 14.1839 193.227 14.5177C193.343 14.8514 193.509 15.1364 193.723 15.3725C193.937 15.6083 194.192 15.7904 194.488 15.9183C194.784 16.0463 195.114 16.1103 195.479 16.1103C196.15 16.1103 197.314 15.7424 197.645 15.0869L196.856 14.3867C196.632 14.7445 195.931 15.0635 195.51 15.0635C195.304 15.0635 195.119 15.0211 194.956 14.9356C194.792 14.85 194.653 14.7323 194.539 14.5817C194.426 14.4311 194.34 14.2542 194.282 14.0509C194.224 13.8478 194.195 13.6281 194.195 13.392C194.195 13.1462 194.224 12.9216 194.282 12.7183C194.34 12.5148 194.425 12.3393 194.536 12.191C194.646 12.0432 194.784 11.9275 194.948 11.8448C195.112 11.7619 195.297 11.7206 195.503 11.7206C195.919 11.7206 196.508 11.9968 196.783 12.3596L197.553 11.6171Z" fill="white"/>
<path fill-rule="evenodd" clip-rule="evenodd" d="M192.8 20.409C192.656 20.2185 192.475 20.0754 192.26 19.9799C192.44 19.8744 192.58 19.7341 192.681 19.5582C192.781 19.3827 192.831 19.182 192.831 18.9558C192.831 18.504 192.677 18.1591 192.368 17.9208C192.059 17.682 191.642 17.5632 191.117 17.5632H188.638V22.8336H191.093C191.382 22.8336 191.645 22.7973 191.881 22.7245C192.118 22.6516 192.32 22.5435 192.487 22.4007C192.655 22.2574 192.785 22.0794 192.877 21.866C192.97 21.6526 193.016 21.408 193.016 21.1317C193.016 20.8405 192.945 20.5997 192.8 20.409ZM189.696 18.534H191.071C191.307 18.534 191.477 18.5768 191.58 18.6624C191.683 18.7475 191.734 18.8731 191.734 19.0387C191.734 19.1842 191.69 19.3034 191.6 19.3964C191.51 19.4895 191.351 19.5359 191.125 19.5359H189.696V18.534ZM191.715 21.6475C191.589 21.7706 191.394 21.8319 191.132 21.8319H189.696V20.4692H191.132C191.647 20.4692 191.904 20.6949 191.904 21.1467C191.904 21.3577 191.841 21.5243 191.715 21.6475Z" fill="white"/>
<path fill-rule="evenodd" clip-rule="evenodd" d="M198.117 20.5063V17.5623H197.037V20.5213C197.037 20.9478 196.937 21.2816 196.739 21.5226C196.541 21.7633 196.269 21.8837 195.925 21.8837C195.579 21.8837 195.309 21.7611 195.113 21.5148C194.918 21.269 194.819 20.9328 194.819 20.5061V17.5623H193.738V20.5213C193.738 20.9076 193.791 21.249 193.897 21.5451C194.003 21.8412 194.15 22.0908 194.341 22.2943C194.531 22.4976 194.762 22.6518 195.032 22.7574C195.303 22.8628 195.599 22.9155 195.925 22.9155C196.614 22.9155 197.152 22.706 197.539 22.2866C197.924 21.8673 198.117 21.2742 198.117 20.5063Z" fill="white"/>
<path fill-rule="evenodd" clip-rule="evenodd" d="M203.086 21.2371C203.086 20.9511 203.032 20.715 202.923 20.5294C202.816 20.3437 202.675 20.1907 202.502 20.0701C202.33 19.9495 202.137 19.8553 201.924 19.7876C201.71 19.7198 201.495 19.6607 201.279 19.6106C201.062 19.5605 200.885 19.5152 200.745 19.475C200.607 19.4349 200.496 19.3923 200.413 19.3472C200.331 19.3019 200.273 19.2503 200.24 19.1925C200.207 19.1351 200.189 19.0636 200.189 18.9781C200.189 18.9175 200.203 18.8601 200.228 18.805C200.254 18.7499 200.298 18.6996 200.359 18.6542C200.421 18.6092 200.501 18.5729 200.598 18.5452C200.697 18.5176 200.818 18.5038 200.962 18.5038C201.209 18.5038 201.432 18.5502 201.63 18.6431C201.828 18.7359 202.015 18.8705 202.19 19.046L202.97 18.308C202.713 18.047 202.426 17.8435 202.109 17.6982C201.792 17.5525 201.423 17.4797 201.001 17.4797C200.733 17.4797 200.482 17.515 200.248 17.5851C200.013 17.6556 199.809 17.7574 199.633 17.8903C199.459 18.0233 199.321 18.1852 199.22 18.3759C199.12 18.5664 199.07 18.7825 199.07 19.0232C199.07 19.2843 199.111 19.5026 199.193 19.6783C199.275 19.8539 199.391 19.9994 199.541 20.1149C199.69 20.2304 199.869 20.3257 200.078 20.4011C200.286 20.4761 200.514 20.5415 200.761 20.5968C201.014 20.6518 201.22 20.7044 201.379 20.7549C201.539 20.805 201.661 20.8579 201.746 20.9128C201.831 20.9681 201.889 21.0269 201.919 21.0897C201.951 21.1526 201.966 21.2266 201.966 21.3119C201.966 21.5127 201.889 21.6584 201.738 21.7487C201.586 21.839 201.348 21.884 201.023 21.884C200.761 21.884 200.513 21.8376 200.278 21.7448C200.044 21.652 199.832 21.4976 199.642 21.2817L198.861 21.9596C199.067 22.2557 199.355 22.489 199.726 22.6597C200.096 22.8305 200.508 22.9159 200.962 22.9159C201.333 22.9159 201.65 22.8755 201.916 22.7953C202.181 22.715 202.401 22.6005 202.577 22.4528C202.751 22.3048 202.88 22.1276 202.962 21.9219C203.045 21.7166 203.086 21.4884 203.086 21.2371Z" fill="white"/>
<path fill-rule="evenodd" clip-rule="evenodd" d="M205.044 22.8327V17.5623H203.963V22.8327H205.044Z" fill="white"/>
<path fill-rule="evenodd" clip-rule="evenodd" d="M210.547 22.8327V17.5623H209.481V19.7905C209.481 19.866 209.482 19.9589 209.484 20.0694C209.487 20.1798 209.489 20.2929 209.489 20.4081C209.489 20.5185 209.49 20.6229 209.493 20.7206C209.495 20.8186 209.497 20.8926 209.497 20.9427C209.46 20.8724 209.405 20.781 209.331 20.6679C209.256 20.555 209.185 20.4486 209.118 20.3481L207.203 17.5625H206.168V22.8328H207.234V20.5138C207.234 20.4384 207.233 20.3456 207.23 20.2353C207.227 20.1249 207.226 20.0145 207.226 19.904C207.226 19.7886 207.224 19.6816 207.222 19.584C207.219 19.4861 207.218 19.4119 207.218 19.3618C207.254 19.4319 207.309 19.5237 207.384 19.6365C207.459 19.7493 207.529 19.8561 207.597 19.9565L209.582 22.8327H210.547Z" fill="white"/>
<path fill-rule="evenodd" clip-rule="evenodd" d="M220.115 21.2371C220.115 20.9511 220.061 20.715 219.953 20.5294C219.845 20.3437 219.704 20.1907 219.532 20.0701C219.36 19.9495 219.167 19.8553 218.953 19.7876C218.739 19.7198 218.524 19.6607 218.308 19.6106C218.092 19.5605 217.915 19.5152 217.775 19.475C217.636 19.4349 217.526 19.3923 217.443 19.3472C217.36 19.3019 217.303 19.2503 217.27 19.1925C217.236 19.1351 217.219 19.0636 217.219 18.9781C217.219 18.9175 217.232 18.8601 217.258 18.805C217.284 18.7499 217.327 18.6996 217.389 18.6542C217.451 18.6092 217.53 18.5729 217.628 18.5452C217.726 18.5176 217.846 18.5038 217.991 18.5038C218.238 18.5038 218.461 18.5502 218.659 18.6431C218.857 18.7359 219.044 18.8705 219.219 19.046L219.999 18.308C219.742 18.047 219.454 17.8435 219.138 17.6982C218.821 17.5525 218.452 17.4797 218.029 17.4797C217.762 17.4797 217.511 17.515 217.276 17.5851C217.043 17.6556 216.837 17.7574 216.663 17.8903C216.488 18.0233 216.349 18.1852 216.25 18.3759C216.149 18.5664 216.098 18.7825 216.098 19.0232C216.098 19.2843 216.14 19.5026 216.223 19.6783C216.304 19.8539 216.421 19.9994 216.57 20.1149C216.72 20.2304 216.898 20.3257 217.107 20.4011C217.315 20.4761 217.543 20.5415 217.79 20.5968C218.043 20.6518 218.249 20.7044 218.408 20.7549C218.567 20.805 218.689 20.8579 218.775 20.9128C218.86 20.9681 218.918 21.0269 218.948 21.0897C218.979 21.1526 218.994 21.2266 218.994 21.3119C218.994 21.5127 218.919 21.6584 218.767 21.7487C218.615 21.839 218.377 21.884 218.053 21.884C217.79 21.884 217.542 21.8376 217.308 21.7448C217.073 21.652 216.86 21.4976 216.67 21.2817L215.89 21.9596C216.096 22.2557 216.384 22.489 216.756 22.6597C217.126 22.8305 217.538 22.9159 217.991 22.9159C218.361 22.9159 218.68 22.8755 218.945 22.7953C219.21 22.715 219.43 22.6005 219.605 22.4528C219.78 22.3048 219.909 22.1276 219.991 21.9219C220.074 21.7166 220.115 21.4884 220.115 21.2371Z" fill="white"/>
<path fill-rule="evenodd" clip-rule="evenodd" d="M224.761 21.2371C224.761 20.9511 224.706 20.715 224.598 20.5294C224.49 20.3437 224.349 20.1907 224.177 20.0701C224.005 19.9495 223.812 19.8553 223.599 19.7876C223.384 19.7198 223.169 19.6607 222.954 19.6106C222.737 19.5605 222.559 19.5152 222.42 19.475C222.281 19.4349 222.171 19.3923 222.088 19.3472C222.006 19.3019 221.948 19.2503 221.914 19.1925C221.881 19.1351 221.864 19.0636 221.864 18.9781C221.864 18.9175 221.877 18.8601 221.903 18.805C221.929 18.7499 221.973 18.6996 222.034 18.6542C222.096 18.6092 222.176 18.5729 222.273 18.5452C222.371 18.5176 222.492 18.5038 222.637 18.5038C222.884 18.5038 223.106 18.5502 223.305 18.6431C223.503 18.7359 223.689 18.8705 223.865 19.046L224.645 18.308C224.387 18.047 224.101 17.8435 223.784 17.6982C223.468 17.5525 223.097 17.4797 222.675 17.4797C222.407 17.4797 222.156 17.515 221.922 17.5851C221.688 17.6556 221.483 17.7574 221.308 17.8903C221.134 18.0233 220.996 18.1852 220.895 18.3759C220.794 18.5664 220.744 18.7825 220.744 19.0232C220.744 19.2843 220.785 19.5026 220.868 19.6783C220.95 19.8539 221.066 19.9994 221.215 20.1149C221.365 20.2304 221.543 20.3257 221.752 20.4011C221.961 20.4761 222.189 20.5415 222.436 20.5968C222.688 20.6518 222.894 20.7044 223.053 20.7549C223.213 20.805 223.336 20.8579 223.42 20.9128C223.505 20.9681 223.563 21.0269 223.594 21.0897C223.625 21.1526 223.641 21.2266 223.641 21.3119C223.641 21.5127 223.564 21.6584 223.413 21.7487C223.261 21.839 223.023 21.884 222.698 21.884C222.436 21.884 222.187 21.8376 221.953 21.7448C221.719 21.652 221.506 21.4976 221.316 21.2817L220.536 21.9596C220.742 22.2557 221.03 22.489 221.401 22.6597C221.772 22.8305 222.183 22.9159 222.637 22.9159C223.008 22.9159 223.325 22.8755 223.59 22.7953C223.856 22.715 224.076 22.6005 224.251 22.4528C224.426 22.3048 224.555 22.1276 224.637 21.9219C224.72 21.7166 224.761 21.4884 224.761 21.2371Z" fill="white"/>
<path fill-rule="evenodd" clip-rule="evenodd" d="M185.635 10.7568H184.556L182.432 16.0276H183.621L184.057 14.8529H186.086L186.522 16.0276H187.743L185.635 10.7568ZM184.437 13.8515L184.794 12.8952C184.852 12.7396 184.906 12.589 184.956 12.4435C185.007 12.2979 185.045 12.1752 185.072 12.0746C185.098 12.1752 185.136 12.2982 185.186 12.4435C185.237 12.5892 185.291 12.7398 185.349 12.8952L185.706 13.8515H184.437Z" fill="white"/>
<path fill-rule="evenodd" clip-rule="evenodd" d="M201.728 14.0247C202.081 13.894 202.476 13.6569 202.653 13.4034C202.83 13.15 202.919 12.8249 202.919 12.4283C202.919 12.1472 202.868 11.9023 202.768 11.6942C202.667 11.4858 202.53 11.3113 202.356 11.1709C202.182 11.0304 201.978 10.9263 201.746 10.8584C201.513 10.7907 201.267 10.7568 201.008 10.7568H198.423V16.0276H199.533V14.13L200.522 14.1753L201.682 16.0278H202.959L201.728 14.0247ZM200.984 13.1364H199.534V11.781H200.984C201.233 11.781 201.427 11.8324 201.567 11.9354C201.707 12.0381 201.777 12.21 201.777 12.451C201.777 12.9076 201.513 13.1364 200.984 13.1364Z" fill="white"/>
<path d="M248.317 26.1473C254.467 26.1473 259.454 21.1566 259.454 15.0001C259.454 8.84375 254.467 3.85303 248.317 3.85303C242.166 3.85303 237.181 8.84375 237.181 15.0001C237.181 21.1566 242.166 26.1473 248.317 26.1473Z" fill="#0E7C98"/>
<path d="M247.691 18.8488H246.037L245.38 17.1373H242.37L241.749 18.8488H240.137L243.069 11.313H244.677L247.691 18.8488ZM244.892 15.8675L243.855 13.071L242.838 15.8675H244.892Z" fill="white"/>
<path d="M252.674 17.764V15.8055H250.702V14.4535H252.674V12.4951H253.988V14.4535H255.965V15.8055H253.988V17.764H252.674Z" fill="white"/>
</g>
<defs>
<clipPath id="clip0_44_2163">
<rect width="260" height="30" fill="white"/>
</clipPath>
</defs>
</svg>
