<svg width="13" height="16" viewBox="0 0 13 16" fill="none" xmlns="http://www.w3.org/2000/svg">
<path d="M6.22575 -9.15527e-05C3.00765 -9.15527e-05 0.399902 2.60898 0.399902 5.82576C0.399902 8.20492 3.5867 13.099 5.24617 15.4872C5.72078 16.1708 6.73127 16.1708 7.20588 15.4872C8.86574 13.099 12.0521 8.20454 12.0521 5.82576C12.0521 2.60766 9.44308 -9.15527e-05 6.2263 -9.15527e-05H6.22575ZM6.22575 8.11541C4.96151 8.11541 3.93605 7.0899 3.93605 5.82571C3.93605 4.56152 4.96156 3.53602 6.22575 3.53602C7.48994 3.53602 8.51545 4.56152 8.51545 5.82571C8.51545 7.0899 7.48994 8.11541 6.22575 8.11541Z" fill="#1D1D1D"/>
</svg>
