<svg width="30" height="30" viewBox="0 0 30 30" fill="none" xmlns="http://www.w3.org/2000/svg">
<g clip-path="url(#clip0_213_894)">
<path d="M15 0C6.71484 0 0 6.71484 0 15C0 21.3574 3.95508 26.7832 9.5332 28.9688C9.4043 27.7793 9.28125 25.9629 9.58594 24.668C9.86133 23.4961 11.3438 17.2148 11.3438 17.2148C11.3438 17.2148 10.8926 16.3184 10.8926 14.9883C10.8926 12.9023 12.0996 11.3438 13.6055 11.3438C14.8828 11.3438 15.5039 12.3047 15.5039 13.459C15.5039 14.748 14.6836 16.6699 14.2617 18.4512C13.9102 19.9453 15.0117 21.1641 16.4824 21.1641C19.1484 21.1641 21.1992 18.3516 21.1992 14.2969C21.1992 10.7051 18.6211 8.19141 14.9355 8.19141C10.6699 8.19141 8.16211 11.3906 8.16211 14.7012C8.16211 15.9902 8.66016 17.373 9.28125 18.123C9.4043 18.2695 9.42188 18.4043 9.38672 18.5508C9.27539 19.0254 9.01758 20.0449 8.9707 20.25C8.90625 20.5254 8.75391 20.584 8.4668 20.4492C6.5918 19.5762 5.41992 16.8398 5.41992 14.6367C5.41992 9.90234 8.85938 5.56055 15.3281 5.56055C20.5313 5.56055 24.5742 9.26953 24.5742 14.2266C24.5742 19.3945 21.3164 23.5547 16.793 23.5547C15.2754 23.5547 13.8457 22.7637 13.3535 21.832C13.3535 21.832 12.6035 24.6973 12.4219 25.4004C12.082 26.7012 11.168 28.3359 10.5586 29.332C11.9648 29.7656 13.4531 30 15 30C23.2852 30 30 23.2852 30 15C30 6.71484 23.2852 0 15 0Z" fill="#F6F6F6"/>
</g>
<defs>
<clipPath id="clip0_213_894">
<rect width="30" height="30" fill="white"/>
</clipPath>
</defs>
</svg>
