<svg width="16" height="16" viewBox="0 0 16 16" fill="none" xmlns="http://www.w3.org/2000/svg">
<path d="M15.8354 13.4411C14.9291 15.614 12.8041 15.9948 12.1098 15.9948C11.9059 15.9948 8.73013 16.1632 4.16542 11.8329C0.491819 8.3482 0.0429359 4.60095 0.00388876 3.88889C-0.0341806 3.19544 0.164354 1.45575 2.55754 0.163224C2.85404 0.00300658 3.44194 -0.0679227 3.59375 0.0839834C3.66109 0.151319 5.66985 3.45664 5.72258 3.56616C5.77541 3.67554 5.80182 3.78317 5.80182 3.88882C5.80182 4.03974 5.69431 4.2286 5.47903 4.45504C5.26388 4.68148 5.02999 4.88919 4.77704 5.07779C4.52406 5.26653 4.29006 5.46655 4.07479 5.67798C3.85964 5.88916 3.75213 6.06302 3.75213 6.1988C3.76676 6.55133 4.05557 7.81411 6.25632 9.74764C8.45744 11.6818 9.51755 12.2267 9.61977 12.2643C9.72183 12.302 9.80665 12.3206 9.87448 12.3206C10.0105 12.3206 10.1841 12.2132 10.3956 11.9981C10.6067 11.7828 11.3173 10.809 11.5439 10.5937C11.7703 10.3788 11.9592 10.2712 12.1102 10.2712C12.2159 10.2712 12.3234 10.2975 12.4327 10.3503C12.5422 10.4031 15.8517 12.3398 15.9152 12.4045C16.0869 12.5807 15.9656 13.13 15.8359 13.441" fill="#1D1D1D"/>
</svg>
