<svg width="357" height="53" viewBox="0 0 357 53" fill="none" xmlns="http://www.w3.org/2000/svg">
<path d="M61.9378 14.68C62.4978 14.7067 63.2311 14.7333 64.1378 14.76C65.0445 14.7867 65.9378 14.8 66.8178 14.8C68.0711 14.8 69.2711 14.7867 70.4178 14.76C71.5645 14.7333 72.3778 14.72 72.8578 14.72C75.6578 14.72 77.7645 15.3067 79.1778 16.48C80.5911 17.6533 81.2978 19.16 81.2978 21C81.2978 21.9333 81.0978 22.8533 80.6978 23.76C80.3245 24.64 79.6845 25.4533 78.7778 26.2C77.8978 26.92 76.7111 27.5067 75.2178 27.96V28.04C77.3245 28.3067 78.9645 28.8133 80.1378 29.56C81.3378 30.28 82.1778 31.1333 82.6578 32.12C83.1378 33.1067 83.3778 34.1467 83.3778 35.24C83.3778 37.5067 82.5245 39.3733 80.8178 40.84C79.1378 42.28 76.7911 43 73.7778 43C73.1911 43 72.3111 42.9867 71.1378 42.96C69.9645 42.9067 68.5511 42.88 66.8978 42.88C65.9645 42.88 65.0445 42.8933 64.1378 42.92C63.2311 42.92 62.4978 42.9467 61.9378 43V42.2C62.8445 42.1467 63.5245 42.04 63.9778 41.88C64.4578 41.72 64.7778 41.4 64.9378 40.92C65.0978 40.44 65.1778 39.72 65.1778 38.76V18.92C65.1778 17.9333 65.0978 17.2133 64.9378 16.76C64.7778 16.28 64.4578 15.96 63.9778 15.8C63.5245 15.6133 62.8445 15.5067 61.9378 15.48V14.68ZM71.8578 15.48C70.6311 15.48 69.8311 15.7067 69.4578 16.16C69.0845 16.6133 68.8978 17.5333 68.8978 18.92V38.76C68.8978 40.1467 69.0845 41.0533 69.4578 41.48C69.8578 41.88 70.6711 42.08 71.8978 42.08C74.5111 42.08 76.4045 41.48 77.5778 40.28C78.7778 39.0533 79.3778 37.32 79.3778 35.08C79.3778 33.0267 78.8178 31.44 77.6978 30.32C76.6045 29.2 74.7911 28.64 72.2578 28.64H68.1378C68.1378 28.64 68.1378 28.5333 68.1378 28.32C68.1378 28.08 68.1378 27.96 68.1378 27.96H71.5778C73.1511 27.96 74.3645 27.6667 75.2178 27.08C76.0711 26.4667 76.6578 25.6667 76.9778 24.68C77.2978 23.6667 77.4578 22.5867 77.4578 21.44C77.4578 19.4667 77.0178 17.9867 76.1378 17C75.2845 15.9867 73.8578 15.48 71.8578 15.48ZM96.0597 21.84C98.4064 21.84 100.233 22.56 101.54 24C102.873 25.4133 103.54 27.6267 103.54 30.64H89.4197L89.3797 29.88H99.6997C99.753 28.5733 99.6464 27.3733 99.3797 26.28C99.113 25.16 98.6864 24.2667 98.0997 23.6C97.5397 22.9333 96.8064 22.6 95.8997 22.6C94.673 22.6 93.5797 23.2133 92.6197 24.44C91.6864 25.6667 91.1264 27.6133 90.9397 30.28L91.0597 30.44C91.0064 30.84 90.9664 31.28 90.9397 31.76C90.913 32.24 90.8997 32.72 90.8997 33.2C90.8997 35.0133 91.193 36.5733 91.7797 37.88C92.3664 39.1867 93.1264 40.1867 94.0597 40.88C95.0197 41.5467 96.0064 41.88 97.0197 41.88C98.2197 41.88 99.3264 41.5867 100.34 41C101.353 40.4133 102.206 39.3733 102.9 37.88L103.7 38.2C103.406 39.08 102.926 39.9333 102.26 40.76C101.593 41.5867 100.753 42.2667 99.7397 42.8C98.7264 43.3067 97.553 43.56 96.2197 43.56C94.2997 43.56 92.6464 43.12 91.2597 42.24C89.8997 41.36 88.8464 40.1467 88.0997 38.6C87.3797 37.0267 87.0197 35.2267 87.0197 33.2C87.0197 30.8533 87.393 28.84 88.1397 27.16C88.8864 25.4533 89.9397 24.1467 91.2997 23.24C92.6597 22.3067 94.2464 21.84 96.0597 21.84ZM119.014 21.84C119.734 21.84 120.361 21.9867 120.894 22.28C121.454 22.5733 121.881 22.96 122.174 23.44C122.494 23.8933 122.654 24.4133 122.654 25C122.654 25.6667 122.441 26.2533 122.014 26.76C121.614 27.2667 121.067 27.52 120.374 27.52C119.814 27.52 119.321 27.3467 118.894 27C118.467 26.6267 118.254 26.1067 118.254 25.44C118.254 24.9333 118.387 24.5067 118.654 24.16C118.947 23.7867 119.267 23.4933 119.614 23.28C119.427 23.0133 119.147 22.88 118.774 22.88C117.654 22.88 116.681 23.3067 115.854 24.16C115.027 24.9867 114.374 25.9867 113.894 27.16C113.441 28.3333 113.214 29.4133 113.214 30.4V38.88C113.214 40.1867 113.587 41.0667 114.334 41.52C115.107 41.9467 116.147 42.16 117.454 42.16V43C116.841 42.9733 115.974 42.9467 114.854 42.92C113.734 42.8667 112.547 42.84 111.294 42.84C110.387 42.84 109.481 42.8667 108.574 42.92C107.694 42.9467 107.027 42.9733 106.574 43V42.16C107.667 42.16 108.441 41.96 108.894 41.56C109.374 41.16 109.614 40.4 109.614 39.28V26.76C109.614 25.56 109.401 24.68 108.974 24.12C108.547 23.5333 107.747 23.24 106.574 23.24V22.4C107.427 22.48 108.254 22.52 109.054 22.52C109.827 22.52 110.561 22.48 111.254 22.4C111.974 22.2933 112.627 22.1467 113.214 21.96V26.96C113.507 26.1867 113.921 25.4133 114.454 24.64C115.014 23.84 115.681 23.1733 116.454 22.64C117.227 22.1067 118.081 21.84 119.014 21.84ZM133.325 21.84C135.672 21.84 137.499 22.56 138.805 24C140.139 25.4133 140.805 27.6267 140.805 30.64H126.685L126.645 29.88H136.965C137.019 28.5733 136.912 27.3733 136.645 26.28C136.379 25.16 135.952 24.2667 135.365 23.6C134.805 22.9333 134.072 22.6 133.165 22.6C131.939 22.6 130.845 23.2133 129.885 24.44C128.952 25.6667 128.392 27.6133 128.205 30.28L128.325 30.44C128.272 30.84 128.232 31.28 128.205 31.76C128.179 32.24 128.165 32.72 128.165 33.2C128.165 35.0133 128.459 36.5733 129.045 37.88C129.632 39.1867 130.392 40.1867 131.325 40.88C132.285 41.5467 133.272 41.88 134.285 41.88C135.485 41.88 136.592 41.5867 137.605 41C138.619 40.4133 139.472 39.3733 140.165 37.88L140.965 38.2C140.672 39.08 140.192 39.9333 139.525 40.76C138.859 41.5867 138.019 42.2667 137.005 42.8C135.992 43.3067 134.819 43.56 133.485 43.56C131.565 43.56 129.912 43.12 128.525 42.24C127.165 41.36 126.112 40.1467 125.365 38.6C124.645 37.0267 124.285 35.2267 124.285 33.2C124.285 30.8533 124.659 28.84 125.405 27.16C126.152 25.4533 127.205 24.1467 128.565 23.24C129.925 22.3067 131.512 21.84 133.325 21.84ZM151.2 50.52C149.786 50.52 148.453 50.3733 147.2 50.08C145.946 49.7867 144.933 49.32 144.16 48.68C143.413 48.0667 143.04 47.28 143.04 46.32C143.04 45.3867 143.413 44.5867 144.16 43.92C144.906 43.2533 145.92 42.7467 147.2 42.4L147.44 43.04C146.853 43.2267 146.386 43.6 146.04 44.16C145.693 44.72 145.52 45.3467 145.52 46.04C145.52 47.2667 146.08 48.2 147.2 48.84C148.346 49.5067 149.826 49.84 151.64 49.84C152.84 49.84 154.013 49.68 155.16 49.36C156.306 49.0667 157.253 48.56 158 47.84C158.746 47.12 159.12 46.1733 159.12 45C159.12 44.12 158.8 43.4 158.16 42.84C157.546 42.2533 156.32 41.96 154.48 41.96H151.52C150.666 41.96 149.84 41.8933 149.04 41.76C148.24 41.6267 147.586 41.3467 147.08 40.92C146.573 40.4933 146.32 39.84 146.32 38.96C146.32 38.0533 146.693 37.1867 147.44 36.36C148.186 35.5067 149.56 34.64 151.56 33.76L152.04 34.12C151.133 34.6 150.346 35.0933 149.68 35.6C149.013 36.08 148.68 36.6533 148.68 37.32C148.68 38.1733 149.32 38.6 150.6 38.6H155.6C157.253 38.6 158.706 38.9733 159.96 39.72C161.24 40.44 161.88 41.64 161.88 43.32C161.88 44.5733 161.48 45.7467 160.68 46.84C159.88 47.9333 158.68 48.8133 157.08 49.48C155.506 50.1733 153.546 50.52 151.2 50.52ZM151.4 34.48C149.426 34.48 147.76 33.9733 146.4 32.96C145.066 31.9467 144.4 30.3467 144.4 28.16C144.4 25.9467 145.066 24.3467 146.4 23.36C147.76 22.3467 149.426 21.84 151.4 21.84C153.373 21.84 155.026 22.3467 156.36 23.36C157.72 24.3467 158.4 25.9467 158.4 28.16C158.4 30.3467 157.72 31.9467 156.36 32.96C155.026 33.9733 153.373 34.48 151.4 34.48ZM151.4 33.76C152.413 33.76 153.2 33.36 153.76 32.56C154.346 31.76 154.64 30.2933 154.64 28.16C154.64 26.0267 154.346 24.56 153.76 23.76C153.2 22.96 152.413 22.56 151.4 22.56C150.413 22.56 149.626 22.96 149.04 23.76C148.453 24.56 148.16 26.0267 148.16 28.16C148.16 30.2933 148.453 31.76 149.04 32.56C149.626 33.36 150.413 33.76 151.4 33.76ZM157.16 25.16L156.44 24.88C156.813 23.9733 157.453 23.1733 158.36 22.48C159.266 21.7867 160.213 21.44 161.2 21.44C161.893 21.44 162.453 21.64 162.88 22.04C163.306 22.4133 163.52 22.9867 163.52 23.76C163.52 24.5867 163.293 25.1733 162.84 25.52C162.413 25.84 161.973 26 161.52 26C161.12 26 160.746 25.8667 160.4 25.6C160.053 25.3067 159.853 24.8533 159.8 24.24C159.746 23.6267 159.933 22.84 160.36 21.88L160.88 22C159.76 22.4267 158.96 22.88 158.48 23.36C158 23.8133 157.56 24.4133 157.16 25.16ZM186.373 14.68C191.147 14.68 194.693 15.88 197.013 18.28C199.333 20.6533 200.493 24.0667 200.493 28.52C200.493 31.4267 199.92 33.9733 198.773 36.16C197.653 38.32 196.013 40 193.853 41.2C191.693 42.4 189.08 43 186.013 43C185.427 43 184.56 42.9867 183.413 42.96C182.267 42.9067 181.267 42.88 180.413 42.88C179.48 42.88 178.56 42.8933 177.653 42.92C176.747 42.92 176.013 42.9467 175.453 43V42.2C176.36 42.1467 177.04 42.04 177.493 41.88C177.973 41.72 178.293 41.4 178.453 40.92C178.613 40.44 178.693 39.72 178.693 38.76V18.92C178.693 17.9333 178.613 17.2133 178.453 16.76C178.293 16.28 177.973 15.96 177.493 15.8C177.04 15.6133 176.36 15.5067 175.453 15.48V14.68C176.013 14.7067 176.747 14.7467 177.653 14.8C178.56 14.8267 179.453 14.8267 180.333 14.8C181.267 14.7733 182.32 14.7467 183.493 14.72C184.667 14.6933 185.627 14.68 186.373 14.68ZM185.373 15.4C184.147 15.4 183.347 15.6267 182.973 16.08C182.6 16.5333 182.413 17.4533 182.413 18.84V38.84C182.413 40.2267 182.6 41.1467 182.973 41.6C183.373 42.0533 184.187 42.28 185.413 42.28C188.32 42.28 190.573 41.76 192.173 40.72C193.773 39.6533 194.893 38.1067 195.533 36.08C196.173 34.0533 196.493 31.5867 196.493 28.68C196.493 24.2 195.667 20.8667 194.013 18.68C192.387 16.4933 189.507 15.4 185.373 15.4ZM208.4 12.4C209.093 12.4 209.693 12.6533 210.2 13.16C210.706 13.6667 210.96 14.2667 210.96 14.96C210.96 15.6533 210.706 16.2533 210.2 16.76C209.693 17.2667 209.093 17.52 208.4 17.52C207.706 17.52 207.106 17.2667 206.6 16.76C206.093 16.2533 205.84 15.6533 205.84 14.96C205.84 14.2667 206.093 13.6667 206.6 13.16C207.106 12.6533 207.706 12.4 208.4 12.4ZM210.48 21.96V39.28C210.48 40.4 210.706 41.16 211.16 41.56C211.64 41.96 212.426 42.16 213.52 42.16V43C213.066 42.9733 212.373 42.9467 211.44 42.92C210.533 42.8667 209.613 42.84 208.68 42.84C207.773 42.84 206.853 42.8667 205.92 42.92C204.986 42.9467 204.293 42.9733 203.84 43V42.16C204.933 42.16 205.706 41.96 206.16 41.56C206.64 41.16 206.88 40.4 206.88 39.28V26.76C206.88 25.56 206.666 24.68 206.24 24.12C205.813 23.5333 205.013 23.24 203.84 23.24V22.4C204.693 22.48 205.52 22.52 206.32 22.52C207.093 22.52 207.826 22.48 208.52 22.4C209.24 22.2933 209.893 22.1467 210.48 21.96ZM220.918 43.28C219.185 43.28 217.918 42.8533 217.118 42C216.345 41.12 215.958 39.96 215.958 38.52C215.958 37.4 216.225 36.48 216.758 35.76C217.318 35.0133 218.025 34.4133 218.878 33.96C219.732 33.48 220.625 33.08 221.558 32.76C222.518 32.4133 223.425 32.08 224.278 31.76C225.132 31.44 225.825 31.08 226.358 30.68C226.918 30.28 227.198 29.7733 227.198 29.16V26.68C227.198 25.56 227.025 24.7067 226.678 24.12C226.358 23.5333 225.918 23.1467 225.358 22.96C224.798 22.7467 224.172 22.64 223.478 22.64C222.812 22.64 222.092 22.7333 221.318 22.92C220.572 23.1067 219.972 23.4933 219.518 24.08C220.025 24.1867 220.465 24.4533 220.838 24.88C221.212 25.3067 221.398 25.8533 221.398 26.52C221.398 27.1867 221.185 27.72 220.758 28.12C220.332 28.4933 219.785 28.68 219.118 28.68C218.345 28.68 217.772 28.44 217.398 27.96C217.052 27.4533 216.878 26.8933 216.878 26.28C216.878 25.5867 217.052 25.0267 217.398 24.6C217.745 24.1733 218.185 23.7733 218.718 23.4C219.332 22.9733 220.118 22.6133 221.078 22.32C222.065 22 223.172 21.84 224.398 21.84C225.492 21.84 226.425 21.9733 227.198 22.24C227.972 22.48 228.612 22.84 229.118 23.32C229.812 23.96 230.265 24.7467 230.478 25.68C230.692 26.5867 230.798 27.68 230.798 28.96V40.08C230.798 40.72 230.892 41.2 231.078 41.52C231.265 41.8133 231.585 41.96 232.038 41.96C232.412 41.96 232.732 41.88 232.998 41.72C233.292 41.56 233.572 41.36 233.838 41.12L234.278 41.8C233.718 42.2267 233.185 42.5867 232.678 42.88C232.172 43.1467 231.492 43.28 230.638 43.28C229.252 43.28 228.332 42.92 227.878 42.2C227.425 41.48 227.198 40.6533 227.198 39.72C226.345 41.1333 225.372 42.08 224.278 42.56C223.212 43.04 222.092 43.28 220.918 43.28ZM222.678 41.68C223.478 41.68 224.265 41.4533 225.038 41C225.812 40.52 226.532 39.7333 227.198 38.64V30.8C226.798 31.3867 226.172 31.8533 225.318 32.2C224.492 32.5467 223.625 32.9333 222.718 33.36C221.838 33.76 221.078 34.32 220.438 35.04C219.798 35.7333 219.478 36.7333 219.478 38.04C219.478 39.2667 219.785 40.1867 220.398 40.8C221.012 41.3867 221.772 41.68 222.678 41.68ZM248.68 21.84C249.614 21.84 250.427 21.9733 251.12 22.24C251.814 22.5067 252.387 22.88 252.84 23.36C253.347 23.8933 253.694 24.5867 253.88 25.44C254.067 26.2933 254.16 27.3467 254.16 28.6V39.28C254.16 40.4 254.387 41.16 254.84 41.56C255.32 41.96 256.107 42.16 257.2 42.16V43C256.747 42.9733 256.054 42.9467 255.12 42.92C254.187 42.8667 253.28 42.84 252.4 42.84C251.52 42.84 250.654 42.8667 249.8 42.92C248.974 42.9467 248.347 42.9733 247.92 43V42.16C248.88 42.16 249.56 41.96 249.96 41.56C250.36 41.16 250.56 40.4 250.56 39.28V27.72C250.56 26.8933 250.507 26.1333 250.4 25.44C250.294 24.7467 250.027 24.1867 249.6 23.76C249.174 23.3333 248.48 23.12 247.52 23.12C246.48 23.12 245.547 23.44 244.72 24.08C243.92 24.72 243.28 25.6 242.8 26.72C242.347 27.8133 242.12 29.04 242.12 30.4V39.28C242.12 40.4 242.32 41.16 242.72 41.56C243.12 41.96 243.8 42.16 244.76 42.16V43C244.334 42.9733 243.694 42.9467 242.84 42.92C242.014 42.8667 241.16 42.84 240.28 42.84C239.4 42.84 238.494 42.8667 237.56 42.92C236.627 42.9467 235.934 42.9733 235.48 43V42.16C236.574 42.16 237.347 41.96 237.8 41.56C238.28 41.16 238.52 40.4 238.52 39.28V26.76C238.52 25.56 238.307 24.68 237.88 24.12C237.454 23.5333 236.654 23.24 235.48 23.24V22.4C236.334 22.48 237.16 22.52 237.96 22.52C238.734 22.52 239.467 22.48 240.16 22.4C240.88 22.2933 241.534 22.1467 242.12 21.96V26.68C242.814 24.9467 243.76 23.7067 244.96 22.96C246.16 22.2133 247.4 21.84 248.68 21.84ZM260.72 21.84C261.654 21.84 262.467 21.9733 263.16 22.24C263.854 22.5067 264.427 22.88 264.88 23.36C265.387 23.8933 265.734 24.5867 265.92 25.44C266.107 26.2933 266.2 27.3467 266.2 28.6V39.28C266.2 40.4 266.427 41.16 266.88 41.56C267.36 41.96 268.147 42.16 269.24 42.16V43C268.787 42.9733 268.094 42.9467 267.16 42.92C266.227 42.8667 265.32 42.84 264.44 42.84C263.56 42.84 262.694 42.8667 261.84 42.92C261.014 42.9467 260.387 42.9733 259.96 43V42.16C260.92 42.16 261.6 41.96 262 41.56C262.4 41.16 262.6 40.4 262.6 39.28V27.72C262.6 26.8933 262.547 26.1333 262.44 25.44C262.334 24.7467 262.067 24.1867 261.64 23.76C261.214 23.3333 260.52 23.12 259.56 23.12C258.014 23.12 256.72 23.8133 255.68 25.2C254.667 26.5867 254.16 28.3067 254.16 30.36L254.04 26.64C254.76 24.8 255.734 23.5467 256.96 22.88C258.187 22.1867 259.44 21.84 260.72 21.84ZM280.788 21.84C282.495 21.84 284.028 22.2133 285.388 22.96C286.748 23.7067 287.828 24.88 288.628 26.48C289.455 28.08 289.868 30.16 289.868 32.72C289.868 35.28 289.455 37.36 288.628 38.96C287.828 40.5333 286.748 41.6933 285.388 42.44C284.028 43.1867 282.495 43.56 280.788 43.56C279.108 43.56 277.575 43.1867 276.188 42.44C274.828 41.6933 273.735 40.5333 272.908 38.96C272.108 37.36 271.708 35.28 271.708 32.72C271.708 30.16 272.108 28.08 272.908 26.48C273.735 24.88 274.828 23.7067 276.188 22.96C277.575 22.2133 279.108 21.84 280.788 21.84ZM280.788 22.64C279.268 22.64 278.015 23.4267 277.028 25C276.068 26.5733 275.588 29.1467 275.588 32.72C275.588 36.2933 276.068 38.8667 277.028 40.44C278.015 41.9867 279.268 42.76 280.788 42.76C282.308 42.76 283.548 41.9867 284.508 40.44C285.495 38.8667 285.988 36.2933 285.988 32.72C285.988 29.1467 285.495 26.5733 284.508 25C283.548 23.4267 282.308 22.64 280.788 22.64ZM306.342 21.84C307.356 21.84 308.196 21.9733 308.862 22.24C309.556 22.5067 310.129 22.88 310.582 23.36C311.089 23.8933 311.449 24.56 311.662 25.36C311.876 26.16 311.982 27.24 311.982 28.6V39.28C311.982 40.4 312.209 41.16 312.662 41.56C313.142 41.96 313.929 42.16 315.022 42.16V43C314.569 42.9733 313.876 42.9467 312.942 42.92C312.009 42.8667 311.102 42.84 310.222 42.84C309.342 42.84 308.476 42.8667 307.622 42.92C306.796 42.9467 306.169 42.9733 305.742 43V42.16C306.702 42.16 307.382 41.96 307.782 41.56C308.182 41.16 308.382 40.4 308.382 39.28V27.72C308.382 26.8933 308.316 26.1333 308.182 25.44C308.049 24.7467 307.742 24.1867 307.262 23.76C306.809 23.3333 306.102 23.12 305.142 23.12C303.462 23.12 302.102 23.8267 301.062 25.24C300.049 26.6267 299.542 28.3467 299.542 30.4V39.28C299.542 40.4 299.742 41.16 300.142 41.56C300.542 41.96 301.222 42.16 302.182 42.16V43C301.756 42.9733 301.116 42.9467 300.262 42.92C299.436 42.8667 298.582 42.84 297.702 42.84C296.822 42.84 295.916 42.8667 294.982 42.92C294.049 42.9467 293.356 42.9733 292.902 43V42.16C293.996 42.16 294.769 41.96 295.222 41.56C295.702 41.16 295.942 40.4 295.942 39.28V26.76C295.942 25.56 295.729 24.68 295.302 24.12C294.876 23.5333 294.076 23.24 292.902 23.24V22.4C293.756 22.48 294.582 22.52 295.382 22.52C296.156 22.52 296.889 22.48 297.582 22.4C298.302 22.2933 298.956 22.1467 299.542 21.96V26.68C300.236 24.8667 301.196 23.6133 302.422 22.92C303.676 22.2 304.982 21.84 306.342 21.84ZM334.969 11.64V38.64C334.969 39.84 335.183 40.7333 335.609 41.32C336.063 41.88 336.863 42.16 338.009 42.16V43C337.183 42.92 336.356 42.88 335.529 42.88C334.756 42.88 334.009 42.92 333.289 43C332.596 43.08 331.956 43.2267 331.369 43.44V16.44C331.369 15.24 331.156 14.36 330.729 13.8C330.303 13.2133 329.503 12.92 328.329 12.92V12.08C329.183 12.16 330.009 12.2 330.809 12.2C331.583 12.2 332.316 12.16 333.009 12.08C333.729 11.9733 334.383 11.8267 334.969 11.64ZM326.569 21.84C327.743 21.84 328.836 22.12 329.849 22.68C330.889 23.24 331.583 24.2 331.929 25.56L331.409 25.96C331.036 24.84 330.449 24.0267 329.649 23.52C328.876 23.0133 327.956 22.76 326.889 22.76C325.316 22.76 323.996 23.5733 322.929 25.2C321.889 26.8267 321.383 29.3333 321.409 32.72C321.409 34.88 321.609 36.68 322.009 38.12C322.436 39.5333 323.049 40.6 323.849 41.32C324.676 42.0133 325.676 42.36 326.849 42.36C327.969 42.36 328.983 41.88 329.889 40.92C330.796 39.96 331.343 38.5467 331.529 36.68L332.009 37.24C331.796 39.2667 331.143 40.8267 330.049 41.92C328.983 43.0133 327.529 43.56 325.689 43.56C324.036 43.56 322.583 43.16 321.329 42.36C320.103 41.56 319.156 40.36 318.489 38.76C317.849 37.16 317.529 35.1467 317.529 32.72C317.529 30.2933 317.943 28.28 318.769 26.68C319.623 25.0533 320.729 23.84 322.089 23.04C323.476 22.24 324.969 21.84 326.569 21.84ZM347.172 21.84C348.238 21.84 349.145 22.0133 349.892 22.36C350.638 22.7067 351.185 23.0267 351.532 23.32C352.412 24.04 352.945 23.56 353.132 21.88H354.052C353.998 22.6267 353.958 23.52 353.932 24.56C353.905 25.5733 353.892 26.9467 353.892 28.68H352.972C352.812 27.6933 352.532 26.7333 352.132 25.8C351.758 24.8667 351.198 24.1067 350.452 23.52C349.705 22.9067 348.732 22.6 347.532 22.6C346.598 22.6 345.812 22.8667 345.172 23.4C344.558 23.9067 344.252 24.6667 344.252 25.68C344.252 26.48 344.492 27.1733 344.972 27.76C345.452 28.32 346.078 28.8533 346.852 29.36C347.625 29.84 348.465 30.3733 349.372 30.96C350.892 31.9467 352.185 32.9467 353.252 33.96C354.318 34.9733 354.852 36.3067 354.852 37.96C354.852 39.1867 354.532 40.2133 353.892 41.04C353.252 41.8667 352.412 42.4933 351.372 42.92C350.358 43.3467 349.238 43.56 348.012 43.56C347.425 43.56 346.865 43.5067 346.332 43.4C345.825 43.32 345.332 43.1867 344.852 43C344.585 42.8667 344.305 42.7067 344.012 42.52C343.745 42.3333 343.478 42.1333 343.212 41.92C342.945 41.7067 342.705 41.72 342.492 41.96C342.278 42.1733 342.118 42.6133 342.012 43.28H341.092C341.145 42.4267 341.185 41.3867 341.212 40.16C341.238 38.9333 341.252 37.3067 341.252 35.28H342.172C342.358 36.7733 342.625 38.08 342.972 39.2C343.318 40.32 343.865 41.2 344.612 41.84C345.358 42.4533 346.398 42.76 347.732 42.76C348.532 42.76 349.318 42.48 350.092 41.92C350.892 41.36 351.292 40.3733 351.292 38.96C351.292 37.7867 350.865 36.8267 350.012 36.08C349.158 35.3333 348.078 34.5467 346.772 33.72C345.812 33.1067 344.905 32.4933 344.052 31.88C343.225 31.2667 342.545 30.5733 342.012 29.8C341.505 29.0267 341.252 28.0933 341.252 27C341.252 25.8 341.518 24.8267 342.052 24.08C342.612 23.3067 343.345 22.7467 344.252 22.4C345.158 22.0267 346.132 21.84 347.172 21.84Z" fill="#F6F6F6"/>
<g clip-path="url(#clip0_188_4468)">
<path d="M1.33302 22.8053H3.99984L2.88853 21.472L1.33302 22.8053ZM5.77741 19.2497L4.66611 22.8053H7.55498L5.77741 19.2497ZM16.2214 18.1384L12.2216 15.0274L6.22171 18.583L16.2221 18.1384L16.2214 18.1384ZM16.8881 17.6939L21.5547 15.0271H16.6657L16.8878 17.6939H16.8881ZM11.1103 15.0271H9.77692L7.99925 16.5826L11.1103 15.0271ZM36.444 14.3604L46 23.2492L23.1113 45.0271L0 23.2492L9.55595 14.3604H36.444ZM23.1104 43.9154L25.5547 37.6929L23.1104 24.582V43.9154ZM22.6659 23.4709H15.1104L18.4439 25.0264L19.9994 36.3603L22.6662 23.4712L22.6659 23.4709ZM19.999 37.9153L9.55503 25.2488L21.9997 43.2491L19.9996 37.9158L19.999 37.9153ZM7.99888 23.4709H4.88786L11.5545 33.2486L7.99888 23.4709ZM9.33224 31.0263L2.66562 23.4709H1.33226L9.33224 31.0263ZM17.3322 18.1372L23.1101 22.3595L28.6658 18.1372H17.3322ZM22.6655 22.8037L16.8877 18.5814L18.221 22.8037H22.6655ZM9.33188 22.8037H14.443L15.9985 19.026L9.33188 22.8037ZM11.5541 23.4704H8.8873L19.1095 35.9151L11.5541 23.4704ZM27.7764 22.8037H31.1099L29.1098 18.5814L27.7764 22.8037ZM36.221 15.0258H35.1097L37.9985 16.5813L36.221 15.0258ZM28.8876 15.0258H24.4432L29.1098 17.6926L28.8876 15.0258ZM29.7764 18.1368L39.9987 18.5814L33.7763 15.0258L29.7764 18.1368ZM38.4431 22.8034H41.332L40.2207 19.2478L38.4431 22.8034ZM41.11 19.4699L41.9988 22.8034L42.8876 21.2478L41.1099 19.4702L41.11 19.4699ZM44.8877 23.4697H41.9988L36.8877 31.0251L44.8877 23.4697ZM34.4437 33.2475L38.2215 23.4697L32.8882 34.8036L34.4437 33.2481V33.2475ZM36.4438 25.2475L23.9991 43.2477L31.5546 36.1365L36.4438 25.2475ZM25.9998 36.3587L30.8887 23.4695H27.3331L24.6663 29.914L25.9998 36.3587ZM31.7776 22.8033H36.6666L30 19.0255L31.7776 22.8033ZM37.1109 23.47H34.222L26.8887 35.9146L37.1109 23.47Z" fill="#F6F6F6"/>
</g>
<defs>
<clipPath id="clip0_188_4468">
<rect width="46" height="46" fill="white" transform="translate(0 7)"/>
</clipPath>
</defs>
</svg>
